<svg xmlns="http://www.w3.org/2000/svg" viewBox="0 0 320 200" preserveAspectRatio="xMidYMid slice"><defs><linearGradient id="bC" x1="0" y1="0" x2="0.25" y2="1"><stop offset="0" stop-color="#15264a"/><stop offset="1" stop-color="#0a1330"/></linearGradient><filter id="gC"><feTurbulence type="fractalNoise" baseFrequency="1.1" numOctaves="2" stitchTiles="stitch"/><feColorMatrix type="saturate" values="0"/><feComponentTransfer><feFuncA type="linear" slope="0.5"/></feComponentTransfer></filter></defs><rect width="320" height="200" fill="url(#bC)"/><polygon points="0,-188.0 320,-284.0 320,-238.0 0,-142.0" fill="#8aa2dc"/><polygon points="0,-142.0 320,-238.0 320,-192.0 0,-96.0" fill="#8aa2dc"/><polygon points="0,-96.0 320,-192.0 320,-146.0 0,-50.0" fill="#8aa2dc"/><polygon points="0,-50.0 320,-146.0 320,-100.0 0,-4.0" fill="#8aa2dc"/><polygon points="0,-4.0 320,-100.0 320,-54.0 0,42.0" fill="#8aa2dc"/><polygon points="0,42.0 320,-54.0 320,-8.0 0,88.0" fill="#8aa2dc"/><polygon points="0,88.0 320,-8.0 320,38.0 0,134.0" fill="#c2d2f2"/><polygon points="0,134.0 320,38.0 320,84.0 0,180.0" fill="#2c4276"/><polygon points="0,180.0 320,84.0 320,130.0 0,226.0" fill="#22335e"/><polygon points="0,226.0 320,130.0 320,176.0 0,272.0" fill="#22335e"/><line x1="0" y1="144.0" x2="320" y2="48.0" stroke="#3d7e9c" stroke-width="1" opacity="0.55"/><rect width="320" height="200" filter="url(#gC)" style="mix-blend-mode:soft-light" opacity="0.5"/></svg>