<svg xmlns="http://www.w3.org/2000/svg" viewBox="0 0 320 200" preserveAspectRatio="xMidYMid slice"><defs><linearGradient id="bM" x1="0" y1="0" x2="0.25" y2="1"><stop offset="0" stop-color="#15264a"/><stop offset="1" stop-color="#0a1330"/></linearGradient><filter id="gM"><feTurbulence type="fractalNoise" baseFrequency="1.1" numOctaves="2" stitchTiles="stitch"/><feColorMatrix type="saturate" values="0"/><feComponentTransfer><feFuncA type="linear" slope="0.5"/></feComponentTransfer></filter></defs><rect width="320" height="200" fill="url(#bM)"/><polygon points="0,-174.4 320,-72.0 320,-36.0 0,-138.4" fill="#8aa2dc"/><polygon points="0,-138.4 320,-36.0 320,0.0 0,-102.4" fill="#8aa2dc"/><polygon points="0,-102.4 320,0.0 320,36.0 0,-66.4" fill="#8aa2dc"/><polygon points="0,-66.4 320,36.0 320,72.0 0,-30.4" fill="#8aa2dc"/><polygon points="0,-30.4 320,72.0 320,108.0 0,5.6" fill="#5f7cc6"/><polygon points="0,5.6 320,108.0 320,144.0 0,41.6" fill="#3f5ba8"/><polygon points="0,41.6 320,144.0 320,180.0 0,77.6" fill="#3f5ba8"/><polygon points="0,77.6 320,180.0 320,216.0 0,113.6" fill="#2c4276"/><polygon points="0,113.6 320,216.0 320,252.0 0,149.6" fill="#22335e"/><polygon points="0,149.6 320,252.0 320,288.0 0,185.6" fill="#22335e"/><polygon points="0,185.6 320,288.0 320,324.0 0,221.6" fill="#22335e"/><polygon points="0,221.6 320,324.0 320,360.0 0,257.6" fill="#22335e"/><line x1="0" y1="-21.2" x2="320" y2="81.2" stroke="#e6edff" stroke-width="1" opacity="0.45"/><rect width="320" height="200" filter="url(#gM)" style="mix-blend-mode:soft-light" opacity="0.5"/></svg>