<?xml version="1.0" encoding="UTF-8" standalone="no"?>
<svg
   width="400"
   height="500"
   viewBox="0 0 300.00001 374.99998"
   version="1.1"
   id="svg1220"
   sodipodi:docname="PEER-REVIEW-the-nuts-and-bolts-04.svg"
   inkscape:version="1.2.2 (732a01da63, 2022-12-09)"
   xmlns:inkscape="http://www.inkscape.org/namespaces/inkscape"
   xmlns:sodipodi="http://sodipodi.sourceforge.net/DTD/sodipodi-0.dtd"
   xmlns:xlink="http://www.w3.org/1999/xlink"
   xmlns="http://www.w3.org/2000/svg"
   xmlns:svg="http://www.w3.org/2000/svg">
  <defs
     id="defs1224">
    <clipPath
       id="b">
      <path
         transform="matrix(1,0,0,-1,0,596.88)"
         d="M 0,0 H 419.76 V 596.88 H 0 Z"
         id="path9" />
    </clipPath>
  </defs>
  <sodipodi:namedview
     id="namedview1222"
     pagecolor="#ffffff"
     bordercolor="#000000"
     borderopacity="0.25"
     inkscape:showpageshadow="2"
     inkscape:pageopacity="0.0"
     inkscape:pagecheckerboard="0"
     inkscape:deskcolor="#d1d1d1"
     showgrid="false"
     inkscape:zoom="1.3231302"
     inkscape:cx="264.52423"
     inkscape:cy="397.54212"
     inkscape:window-width="3440"
     inkscape:window-height="1334"
     inkscape:window-x="-11"
     inkscape:window-y="-11"
     inkscape:window-maximized="1"
     inkscape:current-layer="svg1220" />
  <symbol
     id="d">
    <path
       d="M 0.55,0.634 H 0.32 V 0 H 0.228 V 0.634 H 0 V 0.71 h 0.55 z"
       id="path31" />
  </symbol>
  <symbol
     id="e">
    <path
       d="m 0.09,0.464 c 0.04,0.05 0.092,0.074 0.157,0.074 0.111,0 0.168,-0.063 0.169,-0.188 V 0 H 0.326 V 0.35 C 0.324,0.388 0.315,0.416 0.298,0.434 0.282,0.452 0.255,0.461 0.219,0.461 A 0.13,0.13 0 0 1 0.142,0.438 0.16,0.16 0 0 1 0.09,0.376 V 0 H 0 v 0.75 h 0.09 z"
       id="path34" />
  </symbol>
  <symbol
     id="f">
    <path
       d="M 0.242,0 A 0.231,0.231 0 0 0 0.067,0.07 0.263,0.263 0 0 0 0,0.26 V 0.276 C 0,0.328 0.01,0.375 0.03,0.416 0.05,0.457 0.078,0.49 0.114,0.513 A 0.211,0.211 0 0 0 0.23,0.548 0.198,0.198 0 0 0 0.391,0.48 0.294,0.294 0 0 0 0.448,0.286 V 0.248 H 0.09 A 0.19,0.19 0 0 1 0.136,0.122 0.145,0.145 0 0 1 0.247,0.074 c 0.032,0 0.059,0.006 0.081,0.02 0.022,0.012 0.042,0.03 0.058,0.051 L 0.441,0.102 A 0.222,0.222 0 0 0 0.242,0 M 0.231,0.474 A 0.12,0.12 0 0 1 0.139,0.434 0.192,0.192 0 0 1 0.093,0.322 H 0.358 V 0.33 A 0.17,0.17 0 0 1 0.32,0.436 0.113,0.113 0 0 1 0.23,0.474 Z"
       id="path37" />
  </symbol>
  <symbol
     id="g">
    <path
       d="M 0.255,0.447 A 0.27,0.27 0 0 1 0.211,0.451 C 0.15,0.45 0.11,0.425 0.09,0.375 V 0 H 0 v 0.528 h 0.088 l 0.001,-0.06 a 0.14,0.14 0 0 0 0.126,0.07 c 0.018,0 0.031,-0.002 0.04,-0.007 z"
       id="path40" />
  </symbol>
  <symbol
     id="h">
    <path
       d="M 0,0 Z"
       id="path43" />
  </symbol>
  <symbol
     id="i">
    <path
       d="M 0.341,0.01 A 0.19,0.19 0 0 0 0.33,0.065 0.202,0.202 0 0 0 0.179,0 0.188,0.188 0 0 0 0.049,0.044 0.144,0.144 0 0 0 0,0.156 c 0,0.055 0.02,0.098 0.063,0.128 0.041,0.03 0.1,0.046 0.176,0.046 H 0.327 V 0.372 A 0.1,0.1 0 0 1 0.3,0.447 C 0.279,0.466 0.252,0.475 0.215,0.475 A 0.132,0.132 0 0 1 0.135,0.451 C 0.111,0.434 0.101,0.415 0.101,0.39 H 0.01 c 0,0.027 0.009,0.052 0.028,0.077 A 0.193,0.193 0 0 0 0.114,0.525 0.258,0.258 0 0 0 0.22,0.547 C 0.28,0.548 0.329,0.533 0.364,0.502 A 0.164,0.164 0 0 0 0.417,0.376 V 0.133 c 0,-0.048 0.007,-0.087 0.019,-0.115 V 0.01 H 0.341 m -0.15,0.069 c 0.029,0 0.056,0.007 0.081,0.021 A 0.133,0.133 0 0 1 0.327,0.157 V 0.265 H 0.257 C 0.145,0.266 0.09,0.234 0.09,0.17 0.09,0.14 0.1,0.119 0.12,0.103 A 0.109,0.109 0 0 1 0.19,0.079 Z"
       id="path46" />
  </symbol>
  <symbol
     id="j">
    <path
       d="M 0.187,0.666 V 0.538 H 0.285 V 0.468 H 0.187 V 0.141 C 0.187,0.119 0.19,0.104 0.2,0.093 0.208,0.083 0.223,0.077 0.245,0.077 c 0.01,0 0.024,0.002 0.043,0.006 V 0.01 A 0.262,0.262 0 0 0 0.218,0 C 0.178,0 0.148,0.012 0.127,0.037 A 0.157,0.157 0 0 0 0.097,0.141 V 0.468 H 0 v 0.07 h 0.096 v 0.128 h 0.09 z"
       id="path49" />
  </symbol>
  <symbol
     id="k">
    <path
       d="M 0.147,0.245 0.09,0.185 V 0 H 0 V 0.75 H 0.09 V 0.296 l 0.05,0.058 0.164,0.174 h 0.11 L 0.208,0.308 0.437,0 H 0.331 Z"
       id="path52" />
  </symbol>
  <symbol
     id="l">
    <path
       d="M 0.23,0.346 0.354,0.742 H 0.45 L 0.238,0.132 C 0.205,0.044 0.153,0 0.08,0 L 0.064,0.001 0.03,0.008 V 0.08 h 0.025 c 0.03,0 0.054,0.006 0.071,0.019 A 0.133,0.133 0 0 1 0.168,0.167 L 0.188,0.22 0,0.742 h 0.099 z"
       id="path55" />
  </symbol>
  <symbol
     id="m">
    <path
       d="m 0,0.279 c 0,0.052 0.01,0.098 0.03,0.14 A 0.23,0.23 0 0 0 0.115,0.514 0.233,0.233 0 0 0 0.24,0.548 c 0.072,0 0.13,-0.025 0.174,-0.075 A 0.287,0.287 0 0 0 0.481,0.274 V 0.268 A 0.314,0.314 0 0 0 0.451,0.13 0.222,0.222 0 0 0 0.241,0 0.223,0.223 0 0 0 0.066,0.075 0.287,0.287 0 0 0 0,0.272 V 0.28 M 0.09,0.27 c 0,-0.06 0.014,-0.107 0.041,-0.142 a 0.131,0.131 0 0 1 0.11,-0.053 0.13,0.13 0 0 1 0.11,0.053 C 0.376,0.164 0.39,0.214 0.39,0.28 A 0.224,0.224 0 0 1 0.348,0.42 0.13,0.13 0 0 1 0.238,0.475 0.13,0.13 0 0 1 0.133,0.42 0.245,0.245 0 0 1 0.09,0.268 Z"
       id="path58" />
  </symbol>
  <symbol
     id="n">
    <path
       d="M 0.09,0 H 0 v 0.75 h 0.09 z"
       id="path61" />
  </symbol>
  <symbol
     id="o">
    <path
       d="m 0.33,0.15 c 0,0.024 -0.01,0.043 -0.028,0.057 A 0.26,0.26 0 0 1 0.206,0.242 0.46,0.46 0 0 0 0.096,0.277 0.157,0.157 0 0 0 0.037,0.326 0.118,0.118 0 0 0 0.018,0.393 c 0,0.043 0.018,0.08 0.055,0.11 0.037,0.03 0.083,0.045 0.14,0.045 A 0.22,0.22 0 0 0 0.36,0.5 0.147,0.147 0 0 0 0.415,0.383 h -0.09 c 0,0.025 -0.011,0.046 -0.033,0.064 A 0.117,0.117 0 0 1 0.213,0.474 0.123,0.123 0 0 1 0.136,0.452 0.068,0.068 0 0 1 0.108,0.396 c 0,-0.022 0.009,-0.038 0.026,-0.05 A 0.318,0.318 0 0 1 0.228,0.316 0.487,0.487 0 0 0 0.338,0.28 0.157,0.157 0 0 0 0.399,0.229 0.122,0.122 0 0 0 0.419,0.157 0.136,0.136 0 0 0 0.363,0.043 0.239,0.239 0 0 0 0.216,0 0.266,0.266 0 0 0 0.104,0.022 0.185,0.185 0 0 0 0.027,0.085 0.153,0.153 0 0 0 0,0.172 H 0.09 A 0.095,0.095 0 0 1 0.126,0.1 0.143,0.143 0 0 1 0.216,0.074 c 0.034,0 0.062,0.007 0.082,0.02 C 0.32,0.108 0.33,0.127 0.33,0.15 Z"
       id="path64" />
  </symbol>
  <symbol
     id="p">
    <path
       d="m 0.098,0 h -0.09 v 0.528 h 0.09 V 0 M 0,0.668 c 0,0.015 0.004,0.027 0.013,0.038 0.01,0.01 0.023,0.015 0.04,0.015 0.018,0 0.031,-0.005 0.04,-0.015 A 0.053,0.053 0 0 0 0.107,0.668 0.052,0.052 0 0 0 0.093,0.632 C 0.084,0.622 0.071,0.617 0.053,0.617 c -0.017,0 -0.03,0.005 -0.04,0.015 A 0.053,0.053 0 0 0 0,0.668 Z"
       id="path67" />
  </symbol>
  <symbol
     id="q">
    <path
       d="M 0.085,0.528 0.088,0.462 c 0.04,0.05 0.093,0.076 0.159,0.076 0.111,0 0.168,-0.063 0.169,-0.188 V 0 H 0.326 V 0.35 C 0.324,0.388 0.315,0.416 0.298,0.434 0.282,0.452 0.255,0.461 0.219,0.461 A 0.13,0.13 0 0 1 0.142,0.438 0.16,0.16 0 0 1 0.09,0.376 V 0 H 0 v 0.528 z"
       id="path70" />
  </symbol>
  <symbol
     id="r">
    <path
       d="M 0.446,0.461 A 0.316,0.316 0 0 0 0.391,0.267 0.177,0.177 0 0 0 0.241,0.193 0.194,0.194 0 0 0 0.091,0.254 V 0 H 0 V 0.731 H 0.083 L 0.087,0.673 A 0.186,0.186 0 0 0 0.24,0.74 0.18,0.18 0 0 0 0.39,0.67 0.319,0.319 0 0 0 0.446,0.47 V 0.462 m -0.09,0.01 c 0,0.06 -0.013,0.107 -0.038,0.142 A 0.123,0.123 0 0 1 0.213,0.666 0.133,0.133 0 0 1 0.09,0.592 V 0.339 A 0.133,0.133 0 0 1 0.214,0.267 c 0.044,0 0.078,0.017 0.103,0.051 a 0.255,0.255 0 0 1 0.039,0.154 z"
       id="path73" />
  </symbol>
  <symbol
     id="s">
    <path
       d="m 0.227,0.123 0.13,0.405 H 0.45 L 0.26,0 H 0.191 L 0,0.528 h 0.092 z"
       id="path76" />
  </symbol>
  <symbol
     id="t">
    <path
       d="m 0.515,0.125 0.102,0.403 h 0.09 L 0.553,0 H 0.48 L 0.352,0.4 0.227,0 H 0.153 L 0,0.528 H 0.09 L 0.194,0.133 0.317,0.528 H 0.39 Z"
       id="path79" />
  </symbol>
  <symbol
     id="u">
    <path
       d="m 0,0.053 c 0,0.015 0.005,0.027 0.014,0.039 0.01,0.01 0.023,0.015 0.042,0.015 0.018,0 0.032,-0.005 0.042,-0.015 A 0.055,0.055 0 0 0 0.112,0.052 0.052,0.052 0 0 0 0.098,0.015 C 0.088,0.005 0.074,0 0.056,0 0.037,0 0.023,0.005 0.014,0.015 A 0.054,0.054 0 0 0 0,0.053 m 0,0.43 c 0,0.017 0.005,0.03 0.014,0.04 0.01,0.01 0.024,0.016 0.042,0.016 0.019,0 0.034,-0.006 0.042,-0.016 A 0.055,0.055 0 0 0 0.113,0.483 0.052,0.052 0 0 0 0.098,0.446 C 0.088,0.436 0.075,0.431 0.056,0.431 0.038,0.431 0.024,0.436 0.014,0.446 A 0.054,0.054 0 0 0 0,0.484 Z"
       id="path82" />
  </symbol>
  <symbol
     id="v">
    <path
       d="M 0.328,0.062 C 0.293,0.021 0.241,0 0.173,0 0.117,0 0.074,0.016 0.044,0.049 0.015,0.082 0,0.13 0,0.194 V 0.538 H 0.09 V 0.197 c 0,-0.08 0.033,-0.12 0.098,-0.12 0.069,0 0.115,0.025 0.138,0.077 v 0.384 h 0.09 V 0.01 H 0.33 Z"
       id="path85" />
  </symbol>
  <clipPath
     id="ax">
    <path
       transform="matrix(1,0,0,-1,0,596.88)"
       d="M 0,0 H 419.76 V 596.88 H 0 Z"
       id="path1173" />
  </clipPath>
  <g
     id="g3149"
     transform="translate(-59.224002,-142.049)">
    <path
       d="m 314.421,453.265 c 12.072,0 21.858,-9.786 21.858,-21.858 0,-12.072 -9.786,-21.86 -21.858,-21.86 -12.072,0 -21.858,9.788 -21.858,21.86 0,12.072 9.786,21.858 21.858,21.858"
       fill="#78998f"
       id="path23" />
    <path
       d="m 306.404,305.91 c 17.509,0 31.703,-14.194 31.703,-31.703 0,-17.51 -14.194,-31.704 -31.703,-31.704 -17.509,0 -31.703,14.194 -31.703,31.704 0,17.509 14.194,31.703 31.703,31.703"
       fill="#d03b2c"
       id="path25" />
    <path
       d="m 212.863,214.81 c 17.509,0 31.703,-14.194 31.703,-31.703 0,-17.51 -14.194,-31.704 -31.703,-31.704 -17.51,0 -31.703,14.194 -31.703,31.704 0,17.51 14.194,31.703 31.703,31.703"
       fill="#9763b0"
       id="path27" />
    <path
       d="m 212.863,305.91 c 17.509,0 31.703,-14.194 31.703,-31.703 0,-17.51 -14.194,-31.704 -31.703,-31.704 -17.51,0 -31.703,14.194 -31.703,31.704 0,17.509 14.194,31.703 31.703,31.703 m 0,91.1 c 17.509,0 31.703,-14.194 31.703,-31.703 0,-17.51 -14.194,-31.704 -31.703,-31.704 -17.51,0 -31.703,14.194 -31.703,31.704 0,17.509 14.194,31.703 31.703,31.703 m 0,90.716 c 17.509,0 31.703,-14.194 31.703,-31.703 0,-17.51 -14.194,-31.704 -31.703,-31.704 -17.51,0 -31.703,14.194 -31.703,31.704 0,17.51 14.194,31.703 31.703,31.703 m -100.819,0 c 17.509,0 31.703,-14.194 31.703,-31.703 0,-17.51 -14.194,-31.704 -31.703,-31.704 -17.51,0 -31.703,14.194 -31.703,31.704 0,17.51 14.194,31.703 31.703,31.703"
       fill="#47a6dc"
       id="path29" />
    <g
       data-name="P"
       id="g770">
      <symbol
         id="V">
        <path
           d="M 0.375,0.289 H 0.211 l 0.082,0.21 0.082,-0.21 M 0.414,0.183 0.475,0.038 A 0.059,0.059 0 0 1 0.529,0 0.058,0.058 0 0 1 0.582,0.078 L 0.346,0.653 A 0.057,0.057 0 0 1 0.293,0.689 0.057,0.057 0 0 1 0.24,0.653 L 0.004,0.078 A 0.058,0.058 0 0 1 0.057,0 c 0.026,0 0.045,0.017 0.054,0.038 l 0.061,0.145 z"
           id="path707" />
      </symbol>
      <symbol
         id="W">
        <path
           d="M 0.054,0.475 A 0.054,0.054 0 0 1 0,0.421 V 0.188 C 0,0.09 0.037,0 0.198,0 0.358,0 0.395,0.09 0.395,0.188 v 0.233 c 0,0.03 -0.024,0.054 -0.054,0.054 A 0.054,0.054 0 0 1 0.287,0.421 V 0.188 c 0,-0.046 -0.016,-0.09 -0.089,-0.09 -0.074,0 -0.09,0.044 -0.09,0.09 v 0.233 c 0,0.03 -0.024,0.054 -0.054,0.054 z"
           id="path710" />
      </symbol>
      <symbol
         id="X">
        <path
           d="M 0.068,0.462 H 0.045 A 0.045,0.045 0 0 1 0,0.417 C 0,0.392 0.02,0.372 0.045,0.372 H 0.068 V 0.136 C 0.068,0.057 0.123,0 0.212,0 a 0.047,0.047 0 1 1 0,0.094 c -0.018,0 -0.038,0.013 -0.038,0.036 v 0.242 h 0.045 c 0.025,0 0.045,0.02 0.045,0.045 0,0.025 -0.02,0.045 -0.045,0.045 H 0.174 V 0.546 A 0.053,0.053 0 0 1 0.121,0.599 0.053,0.053 0 0 1 0.068,0.546 Z"
           id="path713" />
      </symbol>
      <symbol
         id="Y">
        <path
           d="m 0.108,0.666 c 0,0.03 -0.024,0.054 -0.054,0.054 A 0.054,0.054 0 0 1 0,0.666 V 0.052 C 0,0.022 0.023,0 0.054,0 0.085,0 0.108,0.022 0.108,0.052 v 0.223 c 0,0.059 0.025,0.103 0.1,0.103 0.065,0 0.088,-0.039 0.088,-0.096 V 0.052 C 0.296,0.022 0.318,0 0.35,0 0.38,0 0.404,0.022 0.404,0.052 v 0.25 c 0,0.087 -0.032,0.174 -0.168,0.174 -0.067,0 -0.109,-0.031 -0.128,-0.06 z"
           id="path716" />
      </symbol>
      <symbol
         id="Z">
        <path
           d="M 0.438,0.24 C 0.438,0.404 0.354,0.481 0.219,0.481 0.084,0.481 0,0.404 0,0.24 0,0.077 0.084,0 0.219,0 0.354,0 0.438,0.077 0.438,0.24 m -0.109,0 c 0,-0.098 -0.038,-0.148 -0.11,-0.148 -0.072,0 -0.11,0.05 -0.11,0.148 0,0.099 0.038,0.149 0.11,0.149 0.072,0 0.11,-0.05 0.11,-0.149 z"
           id="path719" />
      </symbol>
      <symbol
         id="aa">
        <path
           d="m 0.108,0.416 c 0,0.03 -0.024,0.054 -0.054,0.054 A 0.054,0.054 0 0 1 0,0.416 V 0.054 C 0,0.024 0.024,0 0.054,0 0.084,0 0.108,0.024 0.108,0.054 v 0.208 c 0,0.067 0.039,0.111 0.108,0.111 0.028,0 0.051,0.023 0.051,0.051 A 0.051,0.051 0 0 1 0.216,0.475 0.125,0.125 0 0 1 0.108,0.411 Z"
           id="path722" />
      </symbol>
      <symbol
         id="ab">
        <path
           d="M 0,0 Z"
           id="path725" />
      </symbol>
      <symbol
         id="ac">
        <path
           d="m 0.185,0.385 a 0.145,0.145 0 0 0 0.09,-0.032 c 0.011,-0.008 0.02,-0.014 0.034,-0.014 0.026,0 0.048,0.022 0.048,0.048 a 0.043,0.043 0 0 1 -0.01,0.03 C 0.319,0.452 0.256,0.479 0.185,0.479 0.093,0.479 0.018,0.435 0.018,0.345 c 0,-0.17 0.245,-0.128 0.245,-0.209 0,-0.028 -0.029,-0.04 -0.074,-0.04 A 0.165,0.165 0 0 0 0.079,0.137 0.047,0.047 0 0 1 0.048,0.149 0.049,0.049 0 0 1 0,0.101 C 0,0.089 0.004,0.08 0.012,0.07 A 0.238,0.238 0 0 1 0.189,0 c 0.103,0 0.183,0.048 0.183,0.142 0,0.165 -0.246,0.131 -0.246,0.205 0,0.025 0.022,0.038 0.059,0.038 z"
           id="path728" />
      </symbol>
      <symbol
         id="ad">
        <path
           d="m 0.108,0.338 c 0,0 0.039,0.051 0.099,0.051 0.068,0 0.107,-0.05 0.107,-0.149 0,-0.098 -0.038,-0.148 -0.107,-0.148 -0.058,0 -0.099,0.039 -0.099,0.108 v 0.138 m 0.11,0.143 a 0.164,0.164 0 0 1 -0.11,-0.04 v 0.23 c 0,0.03 -0.024,0.054 -0.054,0.054 A 0.054,0.054 0 0 1 0,0.671 V 0.2 C 0,0.067 0.086,0 0.207,0 c 0.135,0 0.214,0.077 0.214,0.24 0,0.163 -0.077,0.241 -0.203,0.241 z"
           id="path731" />
      </symbol>
      <symbol
         id="ae">
        <path
           d="M 0.527,0.476 C 0.459,0.476 0.416,0.454 0.384,0.411 0.359,0.45 0.318,0.476 0.236,0.476 0.169,0.476 0.127,0.445 0.108,0.416 0.108,0.446 0.084,0.47 0.054,0.47 A 0.054,0.054 0 0 1 0,0.416 V 0.052 C 0,0.022 0.023,0 0.054,0 0.085,0 0.108,0.022 0.108,0.052 v 0.223 c 0,0.059 0.025,0.103 0.1,0.103 0.065,0 0.088,-0.039 0.088,-0.096 V 0.052 C 0.296,0.022 0.318,0 0.35,0 0.38,0 0.404,0.022 0.404,0.052 v 0.231 c 0,0.056 0.028,0.095 0.1,0.095 0.065,0 0.088,-0.039 0.088,-0.096 V 0.052 C 0.592,0.022 0.614,0 0.646,0 0.676,0 0.7,0.022 0.7,0.052 v 0.25 c 0,0.087 -0.037,0.174 -0.173,0.174 z"
           id="path734" />
      </symbol>
      <symbol
         id="af">
        <path
           d="m 0.118,0.416 c 0,0.03 -0.024,0.054 -0.054,0.054 A 0.054,0.054 0 0 1 0.01,0.416 V 0.054 C 0.01,0.024 0.034,0 0.064,0 0.094,0 0.118,0.024 0.118,0.054 V 0.416 M 0.064,0.524 c 0.042,0 0.065,0.024 0.065,0.063 0,0.046 -0.023,0.066 -0.065,0.066 C 0.023,0.653 0,0.633 0,0.587 0,0.548 0.023,0.524 0.064,0.524 Z"
           id="path737" />
      </symbol>
      <use
         xlink:href="#V"
         transform="matrix(8.5,0,0,-8.5,187.367,180.961)"
         fill="#ffffff"
         id="use740" />
      <use
         xlink:href="#W"
         transform="matrix(8.5,0,0,-8.5,192.935,181.004)"
         fill="#ffffff"
         id="use742" />
      <use
         xlink:href="#X"
         transform="matrix(8.5,0,0,-8.5,196.913,180.961)"
         fill="#ffffff"
         id="use744" />
      <use
         xlink:href="#Y"
         transform="matrix(8.5,0,0,-8.5,199.83,180.961)"
         fill="#ffffff"
         id="use746" />
      <use
         xlink:href="#Z"
         transform="matrix(8.5,0,0,-8.5,203.994,181.004)"
         fill="#ffffff"
         id="use748" />
      <use
         xlink:href="#aa"
         transform="matrix(8.5,0,0,-8.5,208.482,180.961)"
         fill="#ffffff"
         id="use750" />
      <use
         xlink:href="#ab"
         transform="matrix(8.5,0,0,-8.5,210.81,180.893)"
         fill="#ffffff"
         id="use752" />
      <use
         xlink:href="#ac"
         transform="matrix(8.5,0,0,-8.5,212.953,180.987)"
         fill="#ffffff"
         id="use754" />
      <use
         xlink:href="#W"
         transform="matrix(8.5,0,0,-8.5,216.792,181.004)"
         fill="#ffffff"
         id="use756" />
      <use
         xlink:href="#ad"
         transform="matrix(8.5,0,0,-8.5,221.04,181.004)"
         fill="#ffffff"
         id="use758" />
      <use
         xlink:href="#ae"
         transform="matrix(8.5,0,0,-8.5,225.387,180.961)"
         fill="#ffffff"
         id="use760" />
      <use
         xlink:href="#af"
         transform="matrix(8.5,0,0,-8.5,232.18,180.961)"
         fill="#ffffff"
         id="use762" />
      <use
         xlink:href="#X"
         transform="matrix(8.5,0,0,-8.5,233.82,180.961)"
         fill="#ffffff"
         id="use764" />
      <use
         xlink:href="#ac"
         transform="matrix(8.5,0,0,-8.5,236.591,180.987)"
         fill="#ffffff"
         id="use766" />
      <use
         xlink:href="#ab"
         transform="matrix(8.5,0,0,-8.5,239.983,180.893)"
         fill="#ffffff"
         id="use768" />
    </g>
    <g
       data-name="P"
       id="g826">
      <symbol
         id="ag">
        <path
           d="m 0.202,0.385 c 0.058,0 0.091,-0.03 0.091,-0.075 V 0.292 H 0.162 C 0.075,0.292 0,0.244 0,0.151 0,0.061 0.065,0 0.163,0 0.223,0 0.267,0.015 0.294,0.058 0.294,0.029 0.318,0.005 0.347,0.005 0.376,0.005 0.4,0.029 0.4,0.058 V 0.314 C 0.4,0.42 0.326,0.481 0.202,0.481 0.116,0.481 0.066,0.448 0.038,0.417 A 0.05,0.05 0 0 1 0.025,0.384 c 0,-0.026 0.021,-0.047 0.047,-0.047 0.012,0 0.02,0.003 0.03,0.01 a 0.165,0.165 0 0 0 0.1,0.038 M 0.191,0.09 c -0.056,0 -0.083,0.023 -0.083,0.061 0,0.036 0.024,0.057 0.068,0.057 H 0.293 V 0.18 C 0.293,0.124 0.244,0.09 0.191,0.09 Z"
           id="path772" />
      </symbol>
      <symbol
         id="ah">
        <path
           d="M 0,0.241 C 0,0.078 0.081,0 0.217,0 A 0.24,0.24 0 0 1 0.377,0.057 0.048,0.048 0 0 1 0.394,0.094 0.047,0.047 0 0 1 0.346,0.142 0.047,0.047 0 0 1 0.316,0.132 C 0.293,0.115 0.263,0.092 0.217,0.092 c -0.07,0 -0.108,0.053 -0.108,0.149 0,0.094 0.038,0.148 0.108,0.148 0.05,0 0.076,-0.025 0.089,-0.039 A 0.048,0.048 0 0 1 0.343,0.333 c 0.027,0 0.048,0.021 0.048,0.048 0,0.012 -0.003,0.02 -0.011,0.031 A 0.206,0.206 0 0 1 0.217,0.481 C 0.081,0.481 0,0.404 0,0.241 Z"
           id="path775" />
      </symbol>
      <symbol
         id="ai">
        <path
           d="M 0.054,0.72 A 0.054,0.054 0 0 1 0,0.666 V 0.128 C 0,0.044 0.049,0 0.127,0 A 0.05,0.05 0 0 1 0.177,0.05 0.05,0.05 0 0 1 0.127,0.1 C 0.12,0.1 0.108,0.106 0.108,0.118 v 0.548 c 0,0.03 -0.024,0.054 -0.054,0.054 z"
           id="path778" />
      </symbol>
      <symbol
         id="aj">
        <path
           d="M 0,0.242 C 0,0.075 0.086,0 0.225,0 0.316,0 0.369,0.039 0.386,0.055 A 0.05,0.05 0 0 1 0.403,0.092 0.047,0.047 0 0 1 0.356,0.139 0.054,0.054 0 0 1 0.324,0.128 0.171,0.171 0 0 0 0.225,0.097 c -0.066,0 -0.117,0.033 -0.117,0.105 h 0.247 c 0.061,0 0.061,0.043 0.061,0.08 0,0.069 -0.031,0.199 -0.2,0.199 C 0.08,0.481 0,0.395 0,0.242 m 0.216,0.147 c 0.065,0 0.093,-0.048 0.093,-0.097 H 0.111 c 0.005,0.064 0.047,0.097 0.105,0.097 z"
           id="path781" />
      </symbol>
      <symbol
         id="ak">
        <path
           d="m 0.158,0.682 c 0.042,0 0.065,0.024 0.065,0.063 0,0.046 -0.023,0.066 -0.065,0.066 -0.041,0 -0.064,-0.02 -0.064,-0.066 0,-0.039 0.023,-0.063 0.064,-0.063 M 0.104,0.158 C 0.104,0.126 0.082,0.1 0.05,0.1 A 0.05,0.05 0 0 1 0,0.05 0.05,0.05 0 0 1 0.05,0 c 0.094,0 0.162,0.069 0.162,0.158 v 0.416 c 0,0.03 -0.024,0.054 -0.054,0.054 A 0.054,0.054 0 0 1 0.104,0.574 Z"
           id="path784" />
      </symbol>
      <symbol
         id="al">
        <path
           d="m 0.236,0.476 c -0.067,0 -0.109,-0.031 -0.128,-0.06 0,0.03 -0.024,0.054 -0.054,0.054 A 0.054,0.054 0 0 1 0,0.416 V 0.052 C 0,0.022 0.023,0 0.054,0 0.085,0 0.108,0.022 0.108,0.052 v 0.223 c 0,0.059 0.025,0.103 0.1,0.103 0.065,0 0.088,-0.039 0.088,-0.096 V 0.052 C 0.296,0.022 0.318,0 0.35,0 0.38,0 0.404,0.022 0.404,0.052 v 0.25 c 0,0.087 -0.032,0.174 -0.168,0.174 z"
           id="path787" />
      </symbol>
      <use
         xlink:href="#ag"
         transform="matrix(8.5,0,0,-8.5,185.85,190.004)"
         fill="#ffffff"
         id="use790" />
      <use
         xlink:href="#aa"
         transform="matrix(8.5,0,0,-8.5,190.155,189.961)"
         fill="#ffffff"
         id="use792" />
      <use
         xlink:href="#X"
         transform="matrix(8.5,0,0,-8.5,192.872,189.961)"
         fill="#ffffff"
         id="use794" />
      <use
         xlink:href="#af"
         transform="matrix(8.5,0,0,-8.5,195.726,189.961)"
         fill="#ffffff"
         id="use796" />
      <use
         xlink:href="#ah"
         transform="matrix(8.5,0,0,-8.5,197.478,190.004)"
         fill="#ffffff"
         id="use798" />
      <use
         xlink:href="#ai"
         transform="matrix(8.5,0,0,-8.5,201.555,189.961)"
         fill="#ffffff"
         id="use800" />
      <use
         xlink:href="#aj"
         transform="matrix(8.5,0,0,-8.5,203.43,190.004)"
         fill="#ffffff"
         id="use802" />
      <use
         xlink:href="#ab"
         transform="matrix(8.5,0,0,-8.5,207.179,189.893)"
         fill="#ffffff"
         id="use804" />
      <use
         xlink:href="#X"
         transform="matrix(8.5,0,0,-8.5,209.245,189.961)"
         fill="#ffffff"
         id="use806" />
      <use
         xlink:href="#Z"
         transform="matrix(8.5,0,0,-8.5,211.93,190.004)"
         fill="#ffffff"
         id="use808" />
      <use
         xlink:href="#ab"
         transform="matrix(8.5,0,0,-8.5,215.9,189.893)"
         fill="#ffffff"
         id="use810" />
      <use
         xlink:href="#ak"
         transform="matrix(8.5,0,0,-8.5,217.405,191.304)"
         fill="#ffffff"
         id="use812" />
      <use
         xlink:href="#Z"
         transform="matrix(8.5,0,0,-8.5,219.955,190.004)"
         fill="#ffffff"
         id="use814" />
      <use
         xlink:href="#W"
         transform="matrix(8.5,0,0,-8.5,224.397,190.004)"
         fill="#ffffff"
         id="use816" />
      <use
         xlink:href="#aa"
         transform="matrix(8.5,0,0,-8.5,228.655,189.961)"
         fill="#ffffff"
         id="use818" />
      <use
         xlink:href="#al"
         transform="matrix(8.5,0,0,-8.5,231.52,189.961)"
         fill="#ffffff"
         id="use820" />
      <use
         xlink:href="#ag"
         transform="matrix(8.5,0,0,-8.5,235.65,190.004)"
         fill="#ffffff"
         id="use822" />
      <use
         xlink:href="#ai"
         transform="matrix(8.5,0,0,-8.5,239.969,189.961)"
         fill="#ffffff"
         id="use824" />
    </g>
    <g
       data-name="P"
       id="g862">
      <symbol
         id="am">
        <path
           d="M 0.24,0.223 C 0.24,0.155 0.214,0.105 0.147,0.105 A 0.202,0.202 0 0 0 0.075,0.12 0.06,0.06 0 0 1 0.052,0.125 0.052,0.052 0 0 1 0,0.073 0.05,0.05 0 0 1 0.028,0.027 0.261,0.261 0 0 1 0.147,0 C 0.3,0 0.356,0.095 0.356,0.223 v 0.413 a 0.058,0.058 0 0 1 -0.116,0 z"
           id="path828" />
      </symbol>
      <symbol
         id="an">
        <path
           d="m 0.313,0.2 c 0,-0.069 -0.041,-0.108 -0.099,-0.108 -0.069,0 -0.107,0.05 -0.107,0.148 0,0.099 0.039,0.149 0.107,0.149 0.06,0 0.099,-0.051 0.099,-0.051 V 0.2 M 0.203,0.481 C 0.077,0.481 0,0.403 0,0.24 0,0.077 0.079,0 0.214,0 0.335,0 0.421,0.067 0.421,0.2 v 0.471 c 0,0.03 -0.024,0.054 -0.054,0.054 A 0.054,0.054 0 0 1 0.313,0.671 v -0.23 a 0.164,0.164 0 0 1 -0.11,0.04 z"
           id="path831" />
      </symbol>
      <use
         xlink:href="#am"
         transform="matrix(8.5,0,0,-8.5,189.994,272.421)"
         fill="#ffffff"
         id="use834" />
      <use
         xlink:href="#Z"
         transform="matrix(8.5,0,0,-8.5,193.865,272.421)"
         fill="#ffffff"
         id="use836" />
      <use
         xlink:href="#W"
         transform="matrix(8.5,0,0,-8.5,198.307,272.421)"
         fill="#ffffff"
         id="use838" />
      <use
         xlink:href="#aa"
         transform="matrix(8.5,0,0,-8.5,202.565,272.379)"
         fill="#ffffff"
         id="use840" />
      <use
         xlink:href="#al"
         transform="matrix(8.5,0,0,-8.5,205.43,272.379)"
         fill="#ffffff"
         id="use842" />
      <use
         xlink:href="#ag"
         transform="matrix(8.5,0,0,-8.5,209.56,272.421)"
         fill="#ffffff"
         id="use844" />
      <use
         xlink:href="#ai"
         transform="matrix(8.5,0,0,-8.5,213.878,272.379)"
         fill="#ffffff"
         id="use846" />
      <use
         xlink:href="#ab"
         transform="matrix(8.5,0,0,-8.5,215.476,272.31)"
         fill="#ffffff"
         id="use848" />
      <use
         xlink:href="#aj"
         transform="matrix(8.5,0,0,-8.5,217.652,272.421)"
         fill="#ffffff"
         id="use850" />
      <use
         xlink:href="#an"
         transform="matrix(8.5,0,0,-8.5,221.774,272.421)"
         fill="#ffffff"
         id="use852" />
      <use
         xlink:href="#af"
         transform="matrix(8.5,0,0,-8.5,226.177,272.379)"
         fill="#ffffff"
         id="use854" />
      <use
         xlink:href="#X"
         transform="matrix(8.5,0,0,-8.5,227.817,272.379)"
         fill="#ffffff"
         id="use856" />
      <use
         xlink:href="#Z"
         transform="matrix(8.5,0,0,-8.5,230.503,272.421)"
         fill="#ffffff"
         id="use858" />
      <use
         xlink:href="#aa"
         transform="matrix(8.5,0,0,-8.5,234.99,272.379)"
         fill="#ffffff"
         id="use860" />
    </g>
    <g
       data-name="P"
       id="g893">
      <symbol
         id="ao">
        <path
           d="m 0.108,0.609 c 0,0.03 -0.024,0.054 -0.054,0.054 A 0.054,0.054 0 0 1 0,0.609 V 0.054 C 0,0.024 0.024,0 0.054,0 0.084,0 0.108,0.024 0.108,0.054 V 0.231 C 0.132,0.204 0.176,0.188 0.226,0.188 c 0.13,0 0.203,0.078 0.203,0.241 0,0.163 -0.072,0.24 -0.203,0.24 A 0.148,0.148 0 0 1 0.108,0.609 M 0.319,0.428 C 0.319,0.33 0.282,0.28 0.212,0.28 c -0.07,0 -0.107,0.05 -0.107,0.148 0,0.099 0.037,0.149 0.107,0.149 0.07,0 0.107,-0.05 0.107,-0.149 z"
           id="path864" />
      </symbol>
      <use
         xlink:href="#ac"
         transform="matrix(8.5,0,0,-8.5,189.626,281.404)"
         fill="#ffffff"
         id="use867" />
      <use
         xlink:href="#ah"
         transform="matrix(8.5,0,0,-8.5,193.367,281.421)"
         fill="#ffffff"
         id="use869" />
      <use
         xlink:href="#aa"
         transform="matrix(8.5,0,0,-8.5,197.435,281.379)"
         fill="#ffffff"
         id="use871" />
      <use
         xlink:href="#aj"
         transform="matrix(8.5,0,0,-8.5,200.053,281.421)"
         fill="#ffffff"
         id="use873" />
      <use
         xlink:href="#aj"
         transform="matrix(8.5,0,0,-8.5,204.18,281.421)"
         fill="#ffffff"
         id="use875" />
      <use
         xlink:href="#al"
         transform="matrix(8.5,0,0,-8.5,208.463,281.379)"
         fill="#ffffff"
         id="use877" />
      <use
         xlink:href="#ac"
         transform="matrix(8.5,0,0,-8.5,212.575,281.404)"
         fill="#ffffff"
         id="use879" />
      <use
         xlink:href="#ab"
         transform="matrix(8.5,0,0,-8.5,215.966,281.31)"
         fill="#ffffff"
         id="use881" />
      <use
         xlink:href="#ao"
         transform="matrix(8.5,0,0,-8.5,218.355,283.02)"
         fill="#ffffff"
         id="use883" />
      <use
         xlink:href="#ag"
         transform="matrix(8.5,0,0,-8.5,222.588,281.421)"
         fill="#ffffff"
         id="use885" />
      <use
         xlink:href="#ao"
         transform="matrix(8.5,0,0,-8.5,226.915,283.02)"
         fill="#ffffff"
         id="use887" />
      <use
         xlink:href="#aj"
         transform="matrix(8.5,0,0,-8.5,231.174,281.421)"
         fill="#ffffff"
         id="use889" />
      <use
         xlink:href="#aa"
         transform="matrix(8.5,0,0,-8.5,235.457,281.379)"
         fill="#ffffff"
         id="use891" />
    </g>
    <g
       data-name="P"
       id="g937">
      <symbol
         id="ap">
        <path
           d="M 0.181,0.266 0.363,0.021 A 0.05801939,0.05801939 0 0 1 0.454,0.093 L 0.306,0.273 C 0.402,0.285 0.46,0.377 0.46,0.472 A 0.2,0.2 0 0 1 0.249,0.681 H 0.058 A 0.058,0.058 0 0 1 0,0.623 V 0.058 a 0.058,0.058 0 0 1 0.116,0 V 0.266 H 0.181 M 0.248,0.577 C 0.313,0.577 0.34,0.526 0.34,0.472 0.34,0.419 0.313,0.368 0.251,0.368 H 0.116 v 0.209 z"
           id="path895" />
      </symbol>
      <symbol
         id="aq">
        <path
           d="m 0.214,0 c 0.023,0 0.041,0.013 0.05,0.033 l 0.16,0.362 a 0.056,0.056 0 0 1 0.004,0.021 c 0,0.03 -0.024,0.054 -0.054,0.054 A 0.053,0.053 0 0 1 0.324,0.436 L 0.214,0.158 0.104,0.436 A 0.053,0.053 0 0 1 0.054,0.47 0.054,0.054 0 0 1 0,0.416 C 0,0.407 0.002,0.4 0.004,0.395 L 0.164,0.033 A 0.054,0.054 0 0 1 0.214,0 Z"
           id="path898" />
      </symbol>
      <symbol
         id="ar">
        <path
           d="M 0.369,0.038 A 0.055,0.055 0 0 1 0.421,0 0.05,0.05 0 0 1 0.471,0.034 L 0.608,0.397 A 0.058,0.058 0 0 1 0.613,0.418 C 0.613,0.448 0.59,0.47 0.559,0.47 A 0.053,0.053 0 0 1 0.507,0.435 L 0.425,0.189 0.358,0.434 A 0.053,0.053 0 0 1 0.307,0.47 0.053,0.053 0 0 1 0.255,0.431 L 0.188,0.189 0.105,0.435 A 0.053,0.053 0 0 1 0.054,0.47 0.054,0.054 0 0 1 0,0.416 C 0,0.41 0.002,0.399 0.005,0.392 L 0.142,0.035 A 0.055,0.055 0 0 1 0.193,0 c 0.024,0 0.045,0.016 0.052,0.039 l 0.062,0.218 z"
           id="path901" />
      </symbol>
      <symbol
         id="as">
        <path
           d="M 0.052,0.1 C 0.023,0.1 0,0.079 0,0.05 0,0.021 0.023,0 0.052,0 c 0.1,0 0.163,0.07 0.207,0.168 l 0.186,0.42 a 0.056,0.056 0 0 1 0.004,0.021 c 0,0.03 -0.024,0.054 -0.054,0.054 A 0.053,0.053 0 0 1 0.345,0.629 L 0.235,0.351 0.125,0.629 A 0.053,0.053 0 0 1 0.075,0.663 0.054,0.054 0 0 1 0.021,0.609 C 0.021,0.6 0.023,0.593 0.025,0.588 L 0.179,0.233 C 0.146,0.151 0.116,0.1 0.052,0.1 Z"
           id="path904" />
      </symbol>
      <use
         xlink:href="#ap"
         transform="matrix(8.5,0,0,-8.5,186.858,363.087)"
         fill="#ffffff"
         id="use907" />
      <use
         xlink:href="#aj"
         transform="matrix(8.5,0,0,-8.5,191.367,363.13)"
         fill="#ffffff"
         id="use909" />
      <use
         xlink:href="#aq"
         transform="matrix(8.5,0,0,-8.5,195.313,363.087)"
         fill="#ffffff"
         id="use911" />
      <use
         xlink:href="#af"
         transform="matrix(8.5,0,0,-8.5,199.51,363.087)"
         fill="#ffffff"
         id="use913" />
      <use
         xlink:href="#aj"
         transform="matrix(8.5,0,0,-8.5,201.268,363.13)"
         fill="#ffffff"
         id="use915" />
      <use
         xlink:href="#ar"
         transform="matrix(8.5,0,0,-8.5,205.218,363.087)"
         fill="#ffffff"
         id="use917" />
      <use
         xlink:href="#aj"
         transform="matrix(8.5,0,0,-8.5,210.824,363.13)"
         fill="#ffffff"
         id="use919" />
      <use
         xlink:href="#aa"
         transform="matrix(8.5,0,0,-8.5,215.108,363.087)"
         fill="#ffffff"
         id="use921" />
      <use
         xlink:href="#ac"
         transform="matrix(8.5,0,0,-8.5,217.75,363.113)"
         fill="#ffffff"
         id="use923" />
      <use
         xlink:href="#ab"
         transform="matrix(8.5,0,0,-8.5,221.14,363.02)"
         fill="#ffffff"
         id="use925" />
      <use
         xlink:href="#ah"
         transform="matrix(8.5,0,0,-8.5,223.308,363.13)"
         fill="#ffffff"
         id="use927" />
      <use
         xlink:href="#ag"
         transform="matrix(8.5,0,0,-8.5,227.235,363.13)"
         fill="#ffffff"
         id="use929" />
      <use
         xlink:href="#aa"
         transform="matrix(8.5,0,0,-8.5,231.54,363.087)"
         fill="#ffffff"
         id="use931" />
      <use
         xlink:href="#aa"
         transform="matrix(8.5,0,0,-8.5,234.405,363.087)"
         fill="#ffffff"
         id="use933" />
      <use
         xlink:href="#as"
         transform="matrix(8.5,0,0,-8.5,236.92,364.728)"
         fill="#ffffff"
         id="use935" />
    </g>
    <g
       data-name="P"
       fill="#ffffff"
       id="g969">
      <use
         xlink:href="#Z"
         transform="matrix(8.5,0,0,-8.5,187.525,372.13)"
         id="use939" />
      <use
         xlink:href="#W"
         transform="matrix(8.5,0,0,-8.5,191.966,372.13)"
         id="use941" />
      <use
         xlink:href="#X"
         transform="matrix(8.5,0,0,-8.5,195.944,372.087)"
         id="use943" />
      <use
         xlink:href="#ab"
         transform="matrix(8.5,0,0,-8.5,198.4,372.02)"
         id="use945" />
      <use
         xlink:href="#ao"
         transform="matrix(8.5,0,0,-8.5,200.789,373.728)"
         id="use947" />
      <use
         xlink:href="#aj"
         transform="matrix(8.5,0,0,-8.5,205.048,372.13)"
         id="use949" />
      <use
         xlink:href="#aj"
         transform="matrix(8.5,0,0,-8.5,209.175,372.13)"
         id="use951" />
      <use
         xlink:href="#aa"
         transform="matrix(8.5,0,0,-8.5,213.458,372.087)"
         id="use953" />
      <use
         xlink:href="#ab"
         transform="matrix(8.5,0,0,-8.5,215.787,372.02)"
         id="use955" />
      <use
         xlink:href="#aa"
         transform="matrix(8.5,0,0,-8.5,218.133,372.087)"
         id="use957" />
      <use
         xlink:href="#aj"
         transform="matrix(8.5,0,0,-8.5,220.752,372.13)"
         id="use959" />
      <use
         xlink:href="#aq"
         transform="matrix(8.5,0,0,-8.5,224.696,372.087)"
         id="use961" />
      <use
         xlink:href="#af"
         transform="matrix(8.5,0,0,-8.5,228.894,372.087)"
         id="use963" />
      <use
         xlink:href="#aj"
         transform="matrix(8.5,0,0,-8.5,230.651,372.13)"
         id="use965" />
      <use
         xlink:href="#ar"
         transform="matrix(8.5,0,0,-8.5,234.601,372.087)"
         id="use967" />
    </g>
    <g
       data-name="P"
       id="g1004">
      <symbol
         id="at">
        <path
           d="M 0.116,0.569 H 0.37 c 0.029,0 0.052,0.023 0.052,0.052 A 0.052,0.052 0 0 1 0.37,0.673 H 0.058 A 0.058,0.058 0 0 1 0,0.615 V 0.058 C 0,0.026 0.026,0 0.058,0 H 0.381 C 0.41,0 0.433,0.023 0.433,0.052 A 0.052,0.052 0 0 1 0.381,0.104 H 0.116 v 0.184 h 0.189 c 0.028,0 0.051,0.023 0.051,0.051 A 0.051,0.051 0 0 1 0.305,0.39 H 0.116 Z"
           id="path971" />
      </symbol>
      <use
         xlink:href="#at"
         transform="matrix(8.5,0,0,-8.5,187.641,454.053)"
         fill="#ffffff"
         id="use974" />
      <use
         xlink:href="#an"
         transform="matrix(8.5,0,0,-8.5,191.831,454.164)"
         fill="#ffffff"
         id="use976" />
      <use
         xlink:href="#af"
         transform="matrix(8.5,0,0,-8.5,196.234,454.121)"
         fill="#ffffff"
         id="use978" />
      <use
         xlink:href="#X"
         transform="matrix(8.5,0,0,-8.5,197.874,454.121)"
         fill="#ffffff"
         id="use980" />
      <use
         xlink:href="#Z"
         transform="matrix(8.5,0,0,-8.5,200.56,454.164)"
         fill="#ffffff"
         id="use982" />
      <use
         xlink:href="#aa"
         transform="matrix(8.5,0,0,-8.5,205.048,454.121)"
         fill="#ffffff"
         id="use984" />
      <use
         xlink:href="#ab"
         transform="matrix(8.5,0,0,-8.5,207.376,454.053)"
         fill="#ffffff"
         id="use986" />
      <use
         xlink:href="#ag"
         transform="matrix(8.5,0,0,-8.5,209.526,454.164)"
         fill="#ffffff"
         id="use988" />
      <use
         xlink:href="#ac"
         transform="matrix(8.5,0,0,-8.5,213.604,454.147)"
         fill="#ffffff"
         id="use990" />
      <use
         xlink:href="#ac"
         transform="matrix(8.5,0,0,-8.5,217.34,454.147)"
         fill="#ffffff"
         id="use992" />
      <use
         xlink:href="#aj"
         transform="matrix(8.5,0,0,-8.5,221.08,454.164)"
         fill="#ffffff"
         id="use994" />
      <use
         xlink:href="#ac"
         transform="matrix(8.5,0,0,-8.5,225.136,454.147)"
         fill="#ffffff"
         id="use996" />
      <use
         xlink:href="#ac"
         transform="matrix(8.5,0,0,-8.5,228.872,454.147)"
         fill="#ffffff"
         id="use998" />
      <use
         xlink:href="#aj"
         transform="matrix(8.5,0,0,-8.5,232.612,454.164)"
         fill="#ffffff"
         id="use1000" />
      <use
         xlink:href="#ac"
         transform="matrix(8.5,0,0,-8.5,236.67,454.147)"
         fill="#ffffff"
         id="use1002" />
    </g>
    <g
       data-name="P"
       fill="#ffffff"
       id="g1020">
      <use
         xlink:href="#aa"
         transform="matrix(8.5,0,0,-8.5,201.067,463.121)"
         id="use1006" />
      <use
         xlink:href="#aj"
         transform="matrix(8.5,0,0,-8.5,203.686,463.164)"
         id="use1008" />
      <use
         xlink:href="#aq"
         transform="matrix(8.5,0,0,-8.5,207.632,463.121)"
         id="use1010" />
      <use
         xlink:href="#af"
         transform="matrix(8.5,0,0,-8.5,211.83,463.121)"
         id="use1012" />
      <use
         xlink:href="#aj"
         transform="matrix(8.5,0,0,-8.5,213.59,463.164)"
         id="use1014" />
      <use
         xlink:href="#ar"
         transform="matrix(8.5,0,0,-8.5,217.54,463.121)"
         id="use1016" />
      <use
         xlink:href="#ac"
         transform="matrix(8.5,0,0,-8.5,223.156,463.147)"
         id="use1018" />
    </g>
    <g
       data-name="P"
       id="g1053">
      <symbol
         id="au">
        <path
           d="M 0.066,0.372 V 0.052 C 0.066,0.022 0.088,0 0.12,0 0.15,0 0.174,0.022 0.174,0.052 v 0.32 h 0.067 c 0.025,0 0.045,0.02 0.045,0.045 0,0.025 -0.02,0.045 -0.045,0.045 H 0.174 v 0.062 c 0,0.044 0.028,0.075 0.083,0.075 a 0.047,0.047 0 1 1 0,0.094 C 0.128,0.693 0.066,0.609 0.066,0.516 V 0.462 H 0.045 A 0.045,0.045 0 0 1 0,0.417 C 0,0.392 0.02,0.372 0.045,0.372 Z"
           id="path1022" />
      </symbol>
      <use
         xlink:href="#ap"
         transform="matrix(8.5,0,0,-8.5,282.875,272.379)"
         fill="#ffffff"
         id="use1025" />
      <use
         xlink:href="#aj"
         transform="matrix(8.5,0,0,-8.5,287.384,272.421)"
         fill="#ffffff"
         id="use1027" />
      <use
         xlink:href="#ak"
         transform="matrix(8.5,0,0,-8.5,290.784,273.722)"
         fill="#ffffff"
         id="use1029" />
      <use
         xlink:href="#aj"
         transform="matrix(8.5,0,0,-8.5,293.34,272.421)"
         fill="#ffffff"
         id="use1031" />
      <use
         xlink:href="#ah"
         transform="matrix(8.5,0,0,-8.5,297.463,272.421)"
         fill="#ffffff"
         id="use1033" />
      <use
         xlink:href="#X"
         transform="matrix(8.5,0,0,-8.5,301.337,272.379)"
         fill="#ffffff"
         id="use1035" />
      <use
         xlink:href="#aj"
         transform="matrix(8.5,0,0,-8.5,304.023,272.421)"
         fill="#ffffff"
         id="use1037" />
      <use
         xlink:href="#an"
         transform="matrix(8.5,0,0,-8.5,308.146,272.421)"
         fill="#ffffff"
         id="use1039" />
      <use
         xlink:href="#ab"
         transform="matrix(8.5,0,0,-8.5,312.107,272.31)"
         fill="#ffffff"
         id="use1041" />
      <use
         xlink:href="#ag"
         transform="matrix(8.5,0,0,-8.5,314.257,272.421)"
         fill="#ffffff"
         id="use1043" />
      <use
         xlink:href="#au"
         transform="matrix(8.5,0,0,-8.5,318.207,272.379)"
         fill="#ffffff"
         id="use1045" />
      <use
         xlink:href="#X"
         transform="matrix(8.5,0,0,-8.5,321.144,272.379)"
         fill="#ffffff"
         id="use1047" />
      <use
         xlink:href="#aj"
         transform="matrix(8.5,0,0,-8.5,323.83,272.421)"
         fill="#ffffff"
         id="use1049" />
      <use
         xlink:href="#aa"
         transform="matrix(8.5,0,0,-8.5,328.113,272.379)"
         fill="#ffffff"
         id="use1051" />
    </g>
    <g
       data-name="P"
       id="g1076">
      <symbol
         id="av">
        <path
           d="m 0.203,0.188 c 0.048,0 0.089,0.02 0.109,0.04 V 0.19 C 0.312,0.129 0.276,0.092 0.205,0.092 A 0.174,0.174 0 0 0 0.1,0.131 C 0.088,0.139 0.08,0.143 0.068,0.143 A 0.049,0.049 0 0 1 0.02,0.095 C 0.02,0.082 0.025,0.072 0.03,0.066 0.064,0.025 0.124,0 0.205,0 0.353,0 0.421,0.078 0.421,0.216 v 0.253 c 0,0.133 -0.086,0.2 -0.207,0.2 C 0.079,0.669 0,0.592 0,0.429 0,0.266 0.077,0.188 0.203,0.188 m 0.11,0.143 c 0,0 -0.039,-0.051 -0.099,-0.051 -0.068,0 -0.107,0.05 -0.107,0.149 0,0.098 0.038,0.148 0.107,0.148 0.058,0 0.099,-0.039 0.099,-0.108 z"
           id="path1055" />
      </symbol>
      <use
         xlink:href="#ac"
         transform="matrix(8.5,0,0,-8.5,289.926,281.404)"
         fill="#ffffff"
         id="use1058" />
      <use
         xlink:href="#ah"
         transform="matrix(8.5,0,0,-8.5,293.664,281.421)"
         fill="#ffffff"
         id="use1060" />
      <use
         xlink:href="#aa"
         transform="matrix(8.5,0,0,-8.5,297.732,281.379)"
         fill="#ffffff"
         id="use1062" />
      <use
         xlink:href="#aj"
         transform="matrix(8.5,0,0,-8.5,300.35,281.421)"
         fill="#ffffff"
         id="use1064" />
      <use
         xlink:href="#aj"
         transform="matrix(8.5,0,0,-8.5,304.477,281.421)"
         fill="#ffffff"
         id="use1066" />
      <use
         xlink:href="#al"
         transform="matrix(8.5,0,0,-8.5,308.76,281.379)"
         fill="#ffffff"
         id="use1068" />
      <use
         xlink:href="#af"
         transform="matrix(8.5,0,0,-8.5,313.028,281.379)"
         fill="#ffffff"
         id="use1070" />
      <use
         xlink:href="#al"
         transform="matrix(8.5,0,0,-8.5,314.957,281.379)"
         fill="#ffffff"
         id="use1072" />
      <use
         xlink:href="#av"
         transform="matrix(8.5,0,0,-8.5,319.156,283.02)"
         fill="#ffffff"
         id="use1074" />
    </g>
    <g
       data-name="P"
       id="g1105">
      <symbol
         id="aw">
        <path
           d="m 0.331,0 c 0.029,0 0.052,0.023 0.052,0.052 0,0.01 -0.003,0.021 -0.011,0.032 l -0.147,0.193 0.131,0.1 c 0.013,0.01 0.02,0.026 0.02,0.041 A 0.052,0.052 0 0 1 0.324,0.47 0.053,0.053 0 0 1 0.289,0.457 L 0.108,0.315 V 0.668 C 0.108,0.698 0.084,0.72 0.054,0.72 0.023,0.72 0,0.698 0,0.668 V 0.052 C 0,0.022 0.023,0 0.054,0 0.084,0 0.108,0.022 0.108,0.052 V 0.196 L 0.14,0.221 0.289,0.021 A 0.051,0.051 0 0 1 0.331,0 Z"
           id="path1078" />
      </symbol>
      <use
         xlink:href="#V"
         transform="matrix(8.5,0,0,-8.5,89.138,454.121)"
         fill="#ffffff"
         id="use1081" />
      <use
         xlink:href="#W"
         transform="matrix(8.5,0,0,-8.5,94.707,454.164)"
         fill="#ffffff"
         id="use1083" />
      <use
         xlink:href="#X"
         transform="matrix(8.5,0,0,-8.5,98.685,454.121)"
         fill="#ffffff"
         id="use1085" />
      <use
         xlink:href="#Y"
         transform="matrix(8.5,0,0,-8.5,101.601,454.121)"
         fill="#ffffff"
         id="use1087" />
      <use
         xlink:href="#Z"
         transform="matrix(8.5,0,0,-8.5,105.766,454.164)"
         fill="#ffffff"
         id="use1089" />
      <use
         xlink:href="#aa"
         transform="matrix(8.5,0,0,-8.5,110.254,454.121)"
         fill="#ffffff"
         id="use1091" />
      <use
         xlink:href="#ab"
         transform="matrix(8.5,0,0,-8.5,112.582,454.053)"
         fill="#ffffff"
         id="use1093" />
      <use
         xlink:href="#ae"
         transform="matrix(8.5,0,0,-8.5,114.928,454.121)"
         fill="#ffffff"
         id="use1095" />
      <use
         xlink:href="#ag"
         transform="matrix(8.5,0,0,-8.5,121.584,454.164)"
         fill="#ffffff"
         id="use1097" />
      <use
         xlink:href="#aw"
         transform="matrix(8.5,0,0,-8.5,125.911,454.121)"
         fill="#ffffff"
         id="use1099" />
      <use
         xlink:href="#aj"
         transform="matrix(8.5,0,0,-8.5,129.569,454.164)"
         fill="#ffffff"
         id="use1101" />
      <use
         xlink:href="#ac"
         transform="matrix(8.5,0,0,-8.5,133.626,454.147)"
         fill="#ffffff"
         id="use1103" />
    </g>
    <g
       data-name="P"
       fill="#ffffff"
       id="g1125">
      <use
         xlink:href="#aa"
         transform="matrix(8.5,0,0,-8.5,98.19,463.121)"
         id="use1107" />
      <use
         xlink:href="#aj"
         transform="matrix(8.5,0,0,-8.5,100.81,463.164)"
         id="use1109" />
      <use
         xlink:href="#aq"
         transform="matrix(8.5,0,0,-8.5,104.755,463.121)"
         id="use1111" />
      <use
         xlink:href="#af"
         transform="matrix(8.5,0,0,-8.5,108.954,463.121)"
         id="use1113" />
      <use
         xlink:href="#ac"
         transform="matrix(8.5,0,0,-8.5,110.663,463.147)"
         id="use1115" />
      <use
         xlink:href="#af"
         transform="matrix(8.5,0,0,-8.5,114.488,463.121)"
         id="use1117" />
      <use
         xlink:href="#Z"
         transform="matrix(8.5,0,0,-8.5,116.239,463.164)"
         id="use1119" />
      <use
         xlink:href="#al"
         transform="matrix(8.5,0,0,-8.5,120.727,463.121)"
         id="use1121" />
      <use
         xlink:href="#ac"
         transform="matrix(8.5,0,0,-8.5,124.84,463.147)"
         id="use1123" />
    </g>
    <g
       data-name="P"
       fill="#ffffff"
       id="g1143">
      <use
         xlink:href="#V"
         transform="matrix(8.5,0,0,-8.5,298.131,433.285)"
         id="use1127" />
      <use
         xlink:href="#ah"
         transform="matrix(8.5,0,0,-8.5,303.572,433.327)"
         id="use1129" />
      <use
         xlink:href="#ah"
         transform="matrix(8.5,0,0,-8.5,307.445,433.327)"
         id="use1131" />
      <use
         xlink:href="#aj"
         transform="matrix(8.5,0,0,-8.5,311.32,433.327)"
         id="use1133" />
      <use
         xlink:href="#ao"
         transform="matrix(8.5,0,0,-8.5,315.626,434.925)"
         id="use1135" />
      <use
         xlink:href="#X"
         transform="matrix(8.5,0,0,-8.5,319.706,433.285)"
         id="use1137" />
      <use
         xlink:href="#aj"
         transform="matrix(8.5,0,0,-8.5,322.393,433.327)"
         id="use1139" />
      <use
         xlink:href="#an"
         transform="matrix(8.5,0,0,-8.5,326.515,433.327)"
         id="use1141" />
    </g>
    <g
       data-name="Artifact"
       stroke-linecap="round"
       fill="none"
       stroke="#9763b0"
       id="g1147">
      <path
         d="m 213.593,218.52 v 20.52 m -4.351,-4.352 4.352,4.352 m 4.351,-4.352 -4.352,4.352"
         id="path1145" />
    </g>
    <g
       data-name="Artifact"
       stroke-linecap="round"
       fill="none"
       stroke="#47a6dc"
       id="g1151">
      <path
         d="m 213.593,309.937 v 20.52 m -4.351,-4.351 4.352,4.352 m 4.351,-4.352 -4.352,4.352"
         id="path1149" />
    </g>
    <g
       data-name="Artifact"
       stroke-linecap="round"
       fill="none"
       stroke="#47a6dc"
       id="g1155">
      <path
         d="m 206.507,400.151 v 20.52 m -4.352,-4.351 4.352,4.352 m 4.351,-4.352 -4.352,4.352"
         id="path1153" />
    </g>
    <g
       data-name="Artifact"
       stroke-linecap="round"
       fill="none"
       stroke="#47a6dc"
       id="g1159">
      <path
         d="m 220.68,420.671 v -20.52 m 4.352,4.352 -4.352,-4.352 m -4.352,4.352 4.352,-4.352"
         id="path1157" />
    </g>
    <g
       data-name="Artifact"
       stroke-linecap="round"
       fill="none"
       stroke="#d03b2c"
       id="g1163">
      <path
         d="m 249.374,274.207 h 20.52 m -4.352,4.351 4.352,-4.352 m -4.352,-4.351 4.352,4.352"
         id="path1161" />
    </g>
    <g
       data-name="Artifact"
       stroke-linecap="round"
       fill="none"
       stroke="#d03b2c"
       id="g1167">
      <path
         d="m 251.814,461.484 36.413,19.36 m -5.887,1.8 5.886,-1.799 m -1.799,-5.885 1.799,5.884"
         id="path1165" />
    </g>
    <g
       data-name="Artifact"
       stroke-linecap="round"
       fill="none"
       stroke="#78998f"
       id="g1171">
      <path
         d="m 251.814,455.409 36.413,-19.361 m -5.887,-1.8 5.886,1.8 m -1.799,5.885 1.799,-5.885"
         id="path1169" />
    </g>
    <g
       clip-path="url(#ax)"
       id="g1194">
      <path
         d="m 314.421,507.695 c 12.072,0 21.858,-9.786 21.858,-21.858 0,-12.072 -9.786,-21.86 -21.858,-21.86 -12.072,0 -21.858,9.788 -21.858,21.86 0,12.072 9.786,21.858 21.858,21.858"
         fill="#d03b2c"
         id="path1176" />
      <use
         xlink:href="#ap"
         transform="matrix(8.5,0,0,-8.5,299.86,488.029)"
         fill="#ffffff"
         id="use1178" />
      <use
         xlink:href="#aj"
         transform="matrix(8.5,0,0,-8.5,304.368,488.071)"
         fill="#ffffff"
         id="use1180" />
      <use
         xlink:href="#ak"
         transform="matrix(8.5,0,0,-8.5,307.769,489.372)"
         fill="#ffffff"
         id="use1182" />
      <use
         xlink:href="#aj"
         transform="matrix(8.5,0,0,-8.5,310.325,488.071)"
         fill="#ffffff"
         id="use1184" />
      <use
         xlink:href="#ah"
         transform="matrix(8.5,0,0,-8.5,314.447,488.071)"
         fill="#ffffff"
         id="use1186" />
      <use
         xlink:href="#X"
         transform="matrix(8.5,0,0,-8.5,318.321,488.029)"
         fill="#ffffff"
         id="use1188" />
      <use
         xlink:href="#aj"
         transform="matrix(8.5,0,0,-8.5,321.008,488.071)"
         fill="#ffffff"
         id="use1190" />
      <use
         xlink:href="#an"
         transform="matrix(8.5,0,0,-8.5,325.13,488.071)"
         fill="#ffffff"
         id="use1192" />
    </g>
    <g
       data-name="Artifact"
       stroke-linecap="round"
       fill="none"
       stroke="#47a6dc"
       id="g1198">
      <path
         d="m 174.921,433.006 6.102,0.803 m 0.803,-6.101 -0.803,6.102"
         id="path1196" />
    </g>
    <g
       data-name="Artifact"
       id="g1209">
      <clipPath
         id="ay">
        <path
           transform="matrix(1,0,0,-1,0,596.88)"
           d="M 0,0 H 419.76 V 596.88 H 0 Z"
           id="path1200" />
      </clipPath>
      <g
         clip-path="url(#ay)"
         id="g1205">
        <path
           fill="none"
           stroke="#47a6dc"
           d="m 143.592,433.528 c 0,0 4.777,-9.716 18.559,-9.716 13.782,0 18.56,9.716 18.56,9.716"
           id="path1203" />
      </g>
      <path
         stroke-linecap="round"
         fill="none"
         stroke="#47a6dc"
         d="m 150.548,476.287 -6.102,-0.803 m -0.803,6.102 0.803,-6.102"
         id="path1207" />
    </g>
    <g
       data-name="Artifact"
       id="g1218">
      <clipPath
         id="az">
        <path
           transform="matrix(1,0,0,-1,0,596.88)"
           d="M 0,0 H 419.76 V 596.88 H 0 Z"
           id="path1211" />
      </clipPath>
      <g
         clip-path="url(#az)"
         id="g1216">
        <path
           fill="none"
           stroke="#47a6dc"
           d="m 181.877,475.766 c 0,0 -4.776,9.716 -18.559,9.716 -13.782,0 -18.56,-9.716 -18.56,-9.716"
           id="path1214" />
      </g>
    </g>
  </g>
</svg>
