<svg xmlns="http://www.w3.org/2000/svg" viewBox="0 0 321.5 112" width="321.5" height="112" role="img" aria-label="midvie">
  <title>midvie</title>
  <defs>
    <linearGradient id="mvV" x1="0" y1="0" x2="1" y2="1">
      <stop offset="0" stop-color="#10c98a"/>
      <stop offset="1" stop-color="#23b5ad"/>
    </linearGradient>
  </defs>

  <!-- wordmark letters (Space Grotesk Bold, outlined - no font needed) -->
  <g fill="#0a201a">
    <path d="M9.28 84V32.42H22.18V38.03H24.05Q25.4 35.43 28.52 33.51Q31.64 31.58 36.74 31.58Q42.25 31.58 45.58 33.72Q48.9 35.85 50.67 39.28H52.54Q54.31 35.95 57.54 33.77Q60.76 31.58 66.69 31.58Q71.47 31.58 75.37 33.61Q79.27 35.64 81.61 39.75Q83.95 43.86 83.95 50.1V84H70.85V51.03Q70.85 46.77 68.66 44.64Q66.48 42.5 62.53 42.5Q58.06 42.5 55.61 45.36Q53.17 48.22 53.17 53.53V84H40.06V51.03Q40.06 46.77 37.88 44.64Q35.7 42.5 31.74 42.5Q27.27 42.5 24.83 45.36Q22.38 48.22 22.38 53.53V84Z"/>
    <path d="M96.1 84V32.42H109.2V84ZM102.65 26.38Q99.11 26.38 96.67 24.1Q94.22 21.81 94.22 18.06Q94.22 14.32 96.67 12.03Q99.11 9.74 102.65 9.74Q106.29 9.74 108.68 12.03Q111.07 14.32 111.07 18.06Q111.07 21.81 108.68 24.1Q106.29 26.38 102.65 26.38Z"/>
    <path d="M142.56 85.46Q136.42 85.46 131.07 82.39Q125.71 79.32 122.49 73.39Q119.26 67.46 119.26 59.04V57.38Q119.26 48.95 122.49 43.02Q125.71 37.1 131.02 34.03Q136.32 30.96 142.56 30.96Q147.24 30.96 150.41 32.05Q153.58 33.14 155.56 34.81Q157.54 36.47 158.58 38.34H160.45V11.2H173.55V84H160.66V77.76H158.78Q157.02 80.67 153.32 83.06Q149.63 85.46 142.56 85.46ZM146.51 74.02Q152.54 74.02 156.6 70.12Q160.66 66.22 160.66 58.73V57.69Q160.66 50.2 156.65 46.3Q152.65 42.4 146.51 42.4Q140.48 42.4 136.42 46.3Q132.37 50.2 132.37 57.69V58.73Q132.37 66.22 136.42 70.12Q140.48 74.02 146.51 74.02Z"/>
    <path d="M241.1 84V32.42H254.21V84ZM247.66 26.38Q244.12 26.38 241.68 24.1Q239.23 21.81 239.23 18.06Q239.23 14.32 241.68 12.03Q244.12 9.74 247.66 9.74Q251.3 9.74 253.69 12.03Q256.08 14.32 256.08 18.06Q256.08 21.81 253.69 24.1Q251.3 26.38 247.66 26.38Z"/>
    <path d="M290.27 85.46Q282.58 85.46 276.7 82.18Q270.82 78.9 267.55 72.92Q264.27 66.94 264.27 58.83V57.58Q264.27 49.47 267.5 43.49Q270.72 37.51 276.54 34.24Q282.37 30.96 290.06 30.96Q297.66 30.96 303.27 34.34Q308.89 37.72 312.01 43.7Q315.13 49.68 315.13 57.58V62.06H277.58Q277.79 67.36 281.54 70.69Q285.28 74.02 290.69 74.02Q296.2 74.02 298.8 71.62Q301.4 69.23 302.75 66.32L313.46 71.94Q312.01 74.64 309.25 77.81Q306.5 80.98 301.92 83.22Q297.34 85.46 290.27 85.46ZM277.69 52.28H301.82Q301.4 47.81 298.23 45.1Q295.06 42.4 289.96 42.4Q284.66 42.4 281.54 45.1Q278.42 47.81 277.69 52.28Z"/>
  </g>

  <!-- the "v" as a tiny network: two edges meeting at a node -->
  <g fill="none" stroke="url(#mvV)" stroke-width="9" stroke-linecap="round">
    <path d="M188.0 36.1 L207.3 79.0"/>
    <path d="M226.6 36.1 L207.3 79.0"/>
  </g>
  <circle cx="207.3" cy="79.0" r="9.5" fill="none" stroke="#10c98a" stroke-width="2.2" opacity=".55"/>
  <circle cx="188.0" cy="36.1" r="5.2" fill="#10c98a"/>
  <circle cx="226.6" cy="36.1" r="5.2" fill="#23b5ad"/>
  <circle cx="207.3" cy="79.0" r="7" fill="#0a3b2d"/>
</svg>
