<?xml version="1.0" encoding="utf-8"?>
<!-- Generator: Adobe Illustrator 24.2.0, SVG Export Plug-In . SVG Version: 6.00 Build 0)  -->
<svg version="1.1" id="Layer_1" xmlns="http://www.w3.org/2000/svg" xmlns:xlink="http://www.w3.org/1999/xlink" x="0px" y="0px"
	 viewBox="0 0 1930 600" style="enable-background:new 0 0 1930 600;" xml:space="preserve">
<style type="text/css">
	.st0{fill:#92C83E;}
	.st1{fill:#007BB4;}
	.st2{fill:#168E60;}
</style>
<g id="Layer_2_00000072271220065645846920000013801121374780430211_">
	<g id="Layer_1-2">
		<path class="st0" d="M-477.3,7.5h11.8c58.3,3.3,103,53.2,99.7,111.5c-3.3,58.3-53.2,103-111.5,99.7s-103-53.2-99.7-111.5
			C-574,53.4-531,10.5-477.3,7.5z"/>
		<path class="st1" d="M-473.6,469.7c42.1-9.3,86-8.8,128.2-0.5c21.4,4.2,42.4,10.1,62.9,17.6c46.2,16.6,93.9,29.5,142.7,35.2
			c24.2,2.8,48.7,3.7,72.9,1.7C-51,522.2-35,520-20,514.4c-8.2,14.3-20.7,25.8-34.5,34.6c-26.3,16.8-57.6,24-88.5,25.8
			c-46.7,2.5-93.3-6.1-138.1-18.9c-21.2-6-42-13.6-63-20.3c-23.9-7.7-48-15.2-72.3-21.5c-20.9-5.4-42-9.9-63.5-11.9
			s-43.1-2.1-64.2,2.4c-12.6,2.7-25,6.5-37,11.3C-548.2,494.5-511.9,478.1-473.6,469.7z"/>
		<path class="st1" d="M-891.9,516.5c43.2-23.2,91.9-36.2,141-36.3c43.4-0.3,86.4,8.6,127.1,23.2c21.6,7.9,43.6,14.9,65.8,20.7
			c46.6,12.2,94.8,19.8,143,17.5c18.8-1.1,37.7-3.5,55.6-9.8c-7.7,13.2-19,24-31.6,32.6c-28.7,19.3-63.6,26.7-97.7,28h-20.6
			c-44.7-1.7-88.7-11.8-131.1-25.3c-41.1-13.6-82.2-27.5-124.2-37.9c-23.4-5.7-47.3-10-71.4-10.7c-28.7-1.5-57.5,3.6-83.9,14.8v-0.3
			C-910.9,527-901.4,521.7-891.9,516.5z"/>
		<path class="st2" d="M-793.8,141c32.5-2.6,65.1,0.5,96.5,9.1c65.2,17.7,123.1,60.5,159.6,117.4c33,51.1,48.2,111.6,43.4,172.2
			c-45.7,3.4-92.2-4-134.1-22.6C-736.7,369.5-803,258.8-793.8,141z"/>
		<path class="st2" d="M-289.3,166c40.4-19,84.7-27.9,129.3-26c3.4,0.3,7-0.1,10.4,0.9c12.4,152.8-101.5,286.7-254.3,299.1
			c-14.7,1.2-29.5,1.2-44.3,0c-3.4-43.6,3.4-87.5,20-128C-402.3,248.2-351.6,195.1-289.3,166z"/>
	</g>
</g>
<g id="Layer_2_00000152947087321855110770000001119499970714460088_">
	<g id="Layer_1-2_1_">
		<path class="st0" d="M447.6,7.5h11.8c58.3,3.3,103,53.2,99.7,111.5c-3.3,58.3-53.2,103-111.5,99.7s-103-53.2-99.7-111.5
			C350.9,53.5,393.8,10.5,447.6,7.5z"/>
		<path class="st1" d="M1017.6,133.2c1.8-1.9,5.4-5,7.6-2.1c4,5,6.3,11,9.8,16.3c3.1,4.4,7.6,7.8,10.3,12.6c1.7,3-0.9,7.4-4.4,6.9
			c-4.9-2.8-7.2-8.3-10.8-12.4c-3.3-3.8-5.8-8.3-8.2-12.7c-7.7,5.8-12.9,14.3-20.1,20.7c-1.6,1.4-4,2.9-5.9,1.2
			c-1.9-2.8-2.5-7.4,0.3-9.8C1003.2,146.8,1011.3,140.8,1017.6,133.2z"/>
		<path class="st1" d="M1383.7,133.2c1.8-1.9,5.3-5,7.6-2c3.8,4.8,6.2,10.6,9.5,15.7c3.1,4.7,7.9,8.1,10.6,13.1
			c1.7,3-0.9,7.4-4.4,6.9c-4.8-2.6-6.9-7.9-10.3-11.8c-3.4-4.1-6.3-8.6-8.6-13.3c-7.7,5.9-12.9,14.3-20.1,20.7
			c-1.6,1.4-4,2.9-5.9,1.2c-1.9-2.8-2.4-7.4,0.4-9.8C1369.3,146.8,1377.3,140.8,1383.7,133.2z"/>
		<path class="st1" d="M1138.6,146.7c0.7-5.2,1.4-11.5,6.4-14.4c4.5-0.5,8.2,3.8,8,8.2c0,9.9-2.3,19.5-4.7,29
			c-3.7,13.4-6.6,26.9-9.1,40.6c-0.6,3.2-1.3,6.6-0.7,9.9c5.6-9.9,11.2-19.8,18.2-28.8c4.4-5.5,9.2-11.1,15.5-14.4
			c3-1.4,6.9-2.5,9.8-0.4c3.8,2.8,4.7,7.7,5.6,12c2.3,11.6,1.5,24.3,7.5,34.9c1.5,3,4.7,5.6,4.2,9.3c-1.9,3.1-5.9,4.4-9.2,2.9
			c-4.3-1.9-7-6.3-8.3-10.6c-3.1-10.3-2.1-21.3-4.7-31.6c-0.5-2.6-3.3-5.8-5.9-3.6c-5.4,3.6-8.9,9.2-12.6,14.4
			c-5.6,8.2-10.5,16.9-15.6,25.4c-2.3,3.6-4.5,7.5-7.7,10.4c-3.3,3.1-9.5,1.1-10.3-3.4c0-2.1,0.2-4.3,0.7-6.4
			C1131,202.5,1135.4,174.6,1138.6,146.7z"/>
		<path class="st1" d="M1344.3,133.1c3.4-1.2,7.2-0.1,9.4,2.7c0.3,6.1-1.8,13.9-8.3,16.2c-1.4,0.4-2.9,1.3-4.3,0.6
			c-1.7-3.1-2.8-6.5-3.5-10C1336.6,138.1,1340.5,134.5,1344.3,133.1z"/>
		<path class="st1" d="M917.4,149.1c12.5-3.9,25.5-5.9,38.6-5.9c6.6,0,13.5,2.3,17.8,7.5c4,4.4,4.9,10.7,2.3,16.1
			c-4,8.2-11,14.4-18.1,19.9c6.4,2.1,12.5,5.7,16.3,11.5c3.9,6,3.9,14,0.7,20.3c-3.8,7.5-10.1,13.3-16.8,18.3
			c-8.9,6.6-20,10.7-31.2,10.1c-3-0.2-6.4-0.8-8.3-3.4c-0.6-3.4,1.3-6.7,4.4-7.9c5.8-2.3,12.2,0.1,18.1-2c7.3-2.6,13.8-7,19-12.8
			c3.1-3.6,5.7-8.3,4.8-13.2c-1.4-6.4-7.5-11.1-13.9-11.8c-7.2-1.5-12.9,6-20.1,3.6c-3-0.3-3-3.8-3.7-6c5.5-4.6,12.7-6,18.7-9.9
			c5.4-3.4,10.3-7.7,14.4-12.6c2.6-3.2,5.2-7.5,3.8-11.8c-1.6-4.1-6.2-5.7-10.2-5.8c-8.4-0.2-16.8,1-24.9,3.5
			c-2,0.7-4.2,1.3-5.7,2.9c-0.8,2.1-1.3,4.3-1.6,6.6c-2.3,13.7-4.3,27.4-6.2,41.2c-1,7.6-2.4,15.2-1.9,22.9c0,3.4,0.5,7.2-1.7,10
			c-2.7,3.6-9,2.7-10.9-1.3c-2.2-3.6-1.4-7.9-0.4-11.8c4-17.4,6.1-35.3,8.4-53c0.2-2.6,0.7-5.3,0-7.9c-0.4-2.6-3.4-2-5.3-2.3
			c-2,0.2-3.5-1.8-3.5-3.7c-0.4-2.6,1.8-4.5,3.7-5.8C908.3,152.1,912.8,150.5,917.4,149.1z"/>
		<path class="st1" d="M1017.4,168.1c3.6-0.9,7.6-1.5,11.1,0c4.1,1.8,6.7,5.9,6.4,10.4c0,7.3-4.4,13.6-9.5,18.5
			c-7.6,7.1-16.4,12.6-25.4,17.5c-1.9,1-4,2.4-4.2,4.8c0.1,3.9,1.7,8,5.2,10c4.2,2.3,9.4,1.9,13.9,0.6c7.7-2.1,14.2-7.2,19.7-12.9
			c1.6-1.5,3.1-3.3,5.3-3.8c2.4,1.5,1.8,4.8,0.9,7c-2.5,5.7-7.6,9.8-12.4,13.6c-8.6,6.6-20.1,10.1-30.7,7c-6.9-2-11.8-8.5-12.9-15.4
			c-1.9-11.3,0.8-23,6.2-33C997.1,182.1,1005.3,171.5,1017.4,168.1z M1013.4,180.1c-8.5,6.6-13.9,16.5-16.5,26.8
			c9-5.8,18.8-11.3,25.1-20.3c1.7-2.6,3.3-7.4-0.1-9.3C1018.9,176.7,1015.9,178.3,1013.4,180.1L1013.4,180.1z"/>
		<path class="st1" d="M1385.2,167.7c4.4-1,9.6-0.7,12.8,2.8c3.3,3.3,3.4,8.4,2.3,12.6c-1.5,5.9-5.5,10.8-9.9,14.8
			c-7.3,6.3-15.2,11.8-23.8,16.2c-1.6,1-3.6,1.8-4.3,3.6c-1.2,5.1,1.6,11,6.8,12.5c7.5,2.2,15.5-0.8,21.8-4.9c4.9-3,8.6-7.4,12.9-11
			c0.8-0.9,2.1-1,3-0.2c0.4,0.4,0.7,0.9,0.7,1.5c0.6,4.2-2,7.9-4.6,10.9c-6.9,7.4-15.8,13.7-26,15.3c-6.8,0.9-14.3,0.3-19.7-4.4
			s-7.1-12-6.9-18.8c-0.1-15.2,7.1-29.5,17.3-40.5C1372.4,173.1,1378.3,169,1385.2,167.7z M1379,180.4c-8.3,6.6-13.5,16.3-16,26.4
			c7-4.3,14-8.7,20-14.3c3-2.9,5.9-6.1,6.9-10.1c0.7-1.9-0.1-4.1-1.9-5.1C1384.7,176.7,1381.5,178.4,1379,180.4z"/>
		<path class="st1" d="M1306.8,178.4c3.3-3.7,6.7-8.7,12.2-8.7c3.8-0.2,6.6,4.4,5.1,7.8c-0.9,2-2.8,3.3-4.5,4.6
			c-5,3.7-8.7,8.7-12.4,13.6c-7.8,10.8-14.9,22.1-21.2,33.8c-2.6,4.6-4.8,9.6-8.7,13.3c-2.5,2.8-6.3-0.2-8-2.6
			c-4.5-19.1-13.8-37-16.4-56.6c-0.4-3.6-0.6-7.5,1.4-10.6c1.6-2.4,5.2-2.7,7.7-1.4c2.3,1.5,2.8,4.4,2.8,7
			c-0.5,16.6,6.2,32.1,11.5,47.5C1286.3,210,1295.3,193.3,1306.8,178.4z"/>
		<path class="st1" d="M1332.4,173.1c3.8-1.9,10.3,0.9,9.3,5.8c-2.1,10.2-5.8,20.1-7.1,30.4c-0.9,8.4-1.5,16.9,0.4,25.2
			c2.5,5.8-7.3,10.7-10.6,5.5c-2.9-4.9-1.9-11-1.7-16.5c1.1-15.1,5.1-29.8,6.6-44.8C1329.7,176.6,1330.5,174.4,1332.4,173.1z"/>
		<path class="st1" d="M1050.4,183.5c-0.1-3.7,1.7-7.2,4.8-9.2c3.1-1.4,6.9,1,7.2,4.4c1.7,14.3-3.8,28.1-4.7,42.3
			c7.1-9.3,10.9-20.6,17.6-30.3c4.3-6.5,10.2-13.8,18.8-13.8c5.3-0.5,9.7,3.6,11.5,8.2c4,10,3.7,21,5.8,31.5
			c0.6,3.1,1.3,7.1,4.7,8.4c2.8,0.3,5.2-1.7,7.9-1.6c1.6,0.6,1.7,2.8,1.7,4.2c-2.8,6.8-11.8,10.6-18.4,6.9c-4-2.3-5.1-7.1-5.9-11.3
			c-2-9.2-1.6-18.8-4.3-27.8c-0.9-2.5-2.1-5.5-5-6.1c-4.6,0.5-7.6,4.6-10.1,8c-7.8,11.6-13.1,24.6-20.7,36.3c-2.1,3-5.2,6.4-9.2,5.7
			c-3.2-0.1-5.8-2.6-6.1-5.8c-0.4-5.5,1.2-10.8,1.9-16.2C1049.5,206.2,1050.4,194.9,1050.4,183.5z"/>
		<path class="st1" d="M1416.6,181.6c0.5-3.9,3.9-9.1,8.4-7.4c3.1,0.9,3.6,4.6,3.7,7.3c0.5,13.4-4.1,26.3-5,39.5
			c9.1-12.4,13.5-28.1,24.7-39.1c4-4,10-6.2,15.6-4.6c4.4,1.4,7,5.7,8.4,9.9c3.6,10.7,2.9,22.3,5.9,33.2c0.4,2,1.8,3.8,3.8,4.6
			c2.6,0.3,5-1.2,7.4-2c1.7,1.3,2.8,3.4,1.8,5.5c-3.1,6.3-11.8,9.6-18.1,6c-4.4-2.6-5.2-8.2-6.2-12.8c-1.7-8.6-1.4-17.6-4-26.1
			c-0.9-2.5-2.1-5.6-5-6.2c-5.1,0.6-8.3,5.3-10.9,9.2c-7.2,11.1-12.4,23.4-19.6,34.6c-1.7,2.6-3.8,5.1-6.8,6.1
			c-3,0.7-6.7-0.3-8.1-3.2c-1.7-3.6-0.4-7.6,0-11.4C1415.2,210.5,1416.5,196.1,1416.6,181.6z"/>
		<path class="st1" d="M1363.4,247.8c2.5-1.5,5.8-0.7,7.3,1.9c0,0,0.1,0.1,0.1,0.1c0,4.9-2.8,11.2-8.6,10.8
			c-1.4-2.8-2.7-5.9-2.3-9.1C1360.5,249.9,1361.7,248.6,1363.4,247.8z"/>
		<path class="st1" d="M993.1,255.5c0.8-5.5,9.4-8.2,12.5-3c0,3.2-0.9,6.3-2.6,9c-1.5,2.4-4.6,3-7.1,3.9
			C994.7,262.2,993,259,993.1,255.5z"/>
		<path class="st1" d="M1044.3,312.4c1.1-6,3.8-12.5,9.8-15c6.1-1.4,12,4.1,12.4,10.1c0.5,6.8-0.3,13.6-1.3,20.3
			c-4,23-10.1,45.6-14.7,68.5c6.7-11.7,13.2-23.8,22.5-33.7c5.8-5.8,13.4-10.9,22-10.8c6.1-0.2,12.4,3.3,14.6,9.2
			c4.7,12.1,3.8,25.5,6.9,38c1.5,6,3.2,12.1,7,17.1c2.1,2.9,4.5,6.4,3.2,10.2c-1.9,4.1-6.2,6.5-10.6,5.9
			c-6.2-0.6-10.8-5.7-13.7-10.9c-7.2-13-4.1-28.6-8.2-42.5c-0.7-2.8-3.8-6-6.8-4c-6.2,4-10.5,10.3-15,16.1
			c-9.1,12.8-18.7,25.5-25.2,40c-1.7,3.1-3.2,7.1-7.1,7.9c-4.7,0.6-10.3-1-12.3-5.7c-1.3-3.7-0.3-7.6,0.3-11.3
			c5.1-26.6,9.4-53.4,12.7-80.4C1042.1,331.7,1042.8,322,1044.3,312.4z"/>
		<path class="st1" d="M1158.4,300.1c5.1-1.1,11.2-0.9,15,3.2c4.3,4.1,3.9,11.3,0.1,15.6c-3,3.3-6.8,6.3-11.4,7
			c-8.4,0.4-15.8-9.2-12.8-17.3C1150.6,304.4,1154,301.1,1158.4,300.1z"/>
		<path class="st1" d="M1006.4,314c2.9-2.5,6.7-3.7,10.6-3.2c3.4,0.8,5.3,4.3,6.3,7.4c1.7,5.4,0.4,11-1,16.3
			c-5,17.8-8.3,35.9-11.3,54.1c-1.7,10.6-3.7,21.2-4.6,31.9c-0.5,4.9,0.9,11.3-3.8,14.6c-5.1,3.6-14,4.8-18-1
			c-4.6-5.6-7.3-12.5-11.9-18.2c-14.3-18.2-26.4-38-37.7-58.1c-3.9,20.1-6.5,40.5-9.2,60.7c-0.8,7.1-0.1,15.6-6,20.8
			c-4.2,4.5-13.6,3.7-15.3-2.7c-2.9-11.4,1.4-22.8,3.7-34c5.2-25,11.8-49.9,12.7-75.6c0.3-7.6,9.9-11.5,16.3-8.6
			c3.9,1.3,5.5,5.6,6.5,9.2c3.8,15.5,12,29.5,20.3,43.1c7.7,12.4,15.6,24.9,25,36.1c3.8-17.7,6.5-35.6,9.6-53.5
			c1.5-9.3,3.9-18.5,4.4-28C1003.2,321.5,1003.3,316.9,1006.4,314z"/>
		<path class="st1" d="M1287.5,344.3c8.4-0.9,17.1-1.8,25.5,0.4c4.4,1.3,4.9,10.8-0.8,10c-11.7-1.2-23.5-0.9-35.2,0.7
			c-2.5,0.5-6.2,1-6.5,4.2c-2.3,14.1-3.4,28.5-4.7,42.7c-0.5,8.6-1.3,17.4,0.8,25.8c1.1,3.5,0,7.8-3.3,9.7c-4,1.4-7.9-2.2-8.5-6.1
			c-1.9-10.6-0.9-21.3-0.1-32c1.2-12.4,2.7-24.8,4.4-37.2c-0.1-1.4,1.2-4.5-1.2-4.6c-12.3-0.6-24.6,3.1-36.9,1.3
			c-5-0.2-5.5-8.7-0.5-9.4c6.1-1.2,12.3-0.7,18.4-0.9C1255.2,348.8,1271.4,346.4,1287.5,344.3z"/>
		<path class="st1" d="M1146.3,348c4.6-0.9,10.1,0.2,13.1,4.1c2.4,2.9,1.3,7,0.6,10.3c-2.9,11.2-6.6,22.3-8,33.9
			c-0.6,5.7-1,11.4-1.3,17.1s1.4,11.4,2,17c0.5,2.9-2.1,4.9-4,6.7c-3.6,3.3-9.5,4-13.5,1.1c-3.6-2.7-4.7-7.5-4.9-11.8
			c-1.1-23,6.5-45.2,8.4-67.9C1139.2,354.2,1141.6,349.2,1146.3,348z"/>
		<path class="st1" d="M1700.6,365.4c-0.7-3.1,3.7-3.9,5.9-3.3c2.8,1.4,5.1,3.8,6.5,6.7c1.2,1.8-0.4,3.9-1.9,4.9
			c-3.2,2-6.8,3.1-10.2,4.5c-3.9,14.3-7.2,29.5-4.1,44.3c0.7,4.5,4.4,7.3,6.5,11.1c-1.7,5.2-10.4,6.8-13.2,1.6
			c-4.9-7.9-4.5-17.8-4.7-26.7c-4.4,7-9.1,13.9-15.2,19.5c-4.6,4.3-10,8.3-16.4,8.8c-4.6,0.4-8.3-2.9-10.8-6.4
			c-3.5-5.6-3.8-12.5-3-18.9c1.2-12.9,5.9-25.2,7.2-38.1c0.3-5,7.7-6.5,10.5-2.7c2.8,3.3,0.9,7.8,0,11.5
			c-4.1,11.7-8.7,23.8-7.5,36.4c0.3,2.5,0.9,5.9,3.8,6.7c3.4,0.4,6.5-1.5,9.2-3.5c10-7.8,16.8-18.9,21.6-30.4
			c2.1-4.9,3.5-10.2,6.1-14.9c1.1-2.3,3.5-3.7,6-3.5c2,0.2,3,2.3,4.1,3.7c1.6-1.7,3.2-3.4,4.7-5.2
			C1704.2,369.4,1702.5,367.3,1700.6,365.4z"/>
		<path class="st1" d="M1768.5,364.3c-0.4-2.5,2.6-3.3,4.5-3.3c2.8-0.1,4.7,2.3,6.4,4.2c1.5,1.8,3,4.6,0.8,6.5
			c-3.2,2.8-7.5,3.7-11.3,5.4c3.6,6.1,5.1,13.3,4.3,20.3c-1,10.5-6.3,20.1-13.5,27.6c-5.7,6.1-12.7,11.4-20.9,13.1
			c-5.5,1.3-11.6,0.9-16.4-2.2c-6.2-4-9.8-11.3-10.1-18.5c-0.5-11,3-21.8,8.7-31c4.3-7,10-13.8,17.6-17.3c7-3.1,15.5-3.6,22.3,0.3
			c3,1.6,5.2,4.2,7.3,6.8c2-1.7,3.9-3.6,5.5-5.7C1772.2,368.3,1770.2,366.5,1768.5,364.3z M1743.4,378.2c-5.7,2.2-9.6,7.2-12.6,12.3
			c-4.6,8.2-8,17.6-6.8,27.2c0.6,4.6,3,9.8,7.9,10.9c4.7,0.8,9.4-1.3,13.3-3.8c9-6.3,16.2-16,17-27.3c0.5-6-0.6-12.8-5.2-17.1
			C1753.5,376.8,1747.9,376.4,1743.4,378.2z"/>
		<path class="st1" d="M1348.8,369.3c5.6-2.7,13.5-2.6,17.7,2.6c3.1,3.2,4.2,10.4-1,12c-5.4,1.9-8.2-6.6-13.6-4.2
			c-5.8,2.4-9.7,7.5-13.6,12.3c-8.7,10.8-14.9,23.7-16.8,37.5c-0.6,3.1-0.6,7.1-3.7,9c-2.4,1.3-6.4,1.6-7.8-1.3
			c-2.5-4.8-2.2-10.5-2.5-15.7c0-13,0.4-26,2.3-38.9c0.7-4.2,0-9.4,3.6-12.5c2.3-2.3,7-3.3,9.1-0.2c1.9,2.7,0.5,6.1-0.1,9
			c-3,10-3.9,20.4-4.1,30.8c3.6-7.5,6.8-15.3,11.8-22C1335.4,380.7,1340.8,373.3,1348.8,369.3z"/>
		<path class="st1" d="M1546.5,375c6.7-4.3,14.3-8,22.4-8c6.7,0.1,14.1,5.1,13.8,12.4c-1.4,5.8-4,11.3-5.3,17.2
			c-3.5,15.5-3.5,31.5-6.6,47c-2.4,12.4-9.1,25.4-21.1,30.9c-10.6,4.8-23,1.6-32.3-4.5c-4.8-3.3-10-6.8-13.1-11.9
			c-1.5-2-0.6-4.5,0.1-6.6c5,1.1,8.9,4.7,13.3,7.1c7,4.1,15,7.3,23.2,7.1c6.8-0.2,12.3-5.4,15-11.3c6.2-13.3,6.8-28.2,8.5-42.6
			c-4.5,4.5-8.6,9.5-13.9,13.1c-7.1,4.9-15.5,9.5-24.5,8.5c-4.8-0.5-8.3-4.5-9.6-8.9c-2.9,6.2-10.6,9.9-17.1,7.5
			c-3.7-1.3-5.7-5-6.5-8.6c-2.7-9.6-2.1-19.8-4.6-29.5c-0.9-3-2-6.6-5.3-7.8c-4.2,0.4-7.2,3.7-9.5,6.9c-7,10-12,21.3-18.1,31.9
			c-2.1,3.5-4,7.3-7.3,9.9c-3.1,2.6-8.8,1.9-10.7-1.9c-1.6-3.4-0.6-7.3-0.1-10.8c2.6-13.7,3.9-27.7,3.9-41.7
			c-0.1-3.6,1.6-7.1,4.5-9.2c2.7-1.2,5.8,0,7,2.7c0.2,0.5,0.4,1,0.4,1.6c1.7,14.3-3.8,28.1-4.7,42.3c9.2-12.6,13.6-28.6,25.2-39.6
			c4.1-3.7,10.1-5.6,15.5-3.9c4.7,1.8,7.1,6.7,8.4,11.3c2.9,10.1,2.6,20.8,5.2,30.9c0.5,2.2,1.8,4.5,4.1,5.3c3.2,0,6.1-2.4,9.3-1
			c-0.4-8.5,3.2-16.5,7.6-23.5C1529.4,388.2,1537.5,380.7,1546.5,375z M1561.2,377.7c-12.1,4-21,14-27.8,24.3
			c-3.3,5.2-6.7,11.2-5.8,17.6c1.2,3.5,5.4,4.1,8.5,2.9c15-4.8,26.3-17.5,32.2-31.7c1.4-3.6,2.3-8.1,0.2-11.6
			C1566.8,376.7,1563.6,376.8,1561.2,377.7z"/>
		<path class="st1" d="M1894.3,371.9c5.2-2.7,10.8-4.8,16.7-4.9s12.3,3.6,14,9.6v4c-1.7,5.5-3.9,10.8-5.2,16.4
			c-3.8,16.8-3.4,34.3-7.5,51.1c-2.5,8.6-6.9,17-14,22.7c-6,4.8-13.8,6.8-21.4,5.7c-10.1-1.3-18.9-7-26.3-13.6
			c-2.7-2.5-5.7-6.1-4.3-10.1c1.9-2,4.3,0.3,6.2,1.1c6.2,4.1,12.6,8.2,19.8,10.3c5.5,1.6,11.8,2.7,17.1,0s8.7-8.5,10.7-14.1
			c4.4-12.2,5.2-25.3,6.5-38.2c-4.6,4.9-9,10-14.7,13.7c-7,4.8-15.4,9.1-24.2,7.7c-4.7-0.6-7.9-4.8-9-9.1
			c-2.8,6.5-10.9,10.5-17.6,7.6c-4.2-1.7-5.8-6.4-6.6-10.4c-2.3-9.6-1.7-19.8-4.6-29.3c-0.9-2.5-2.3-5.6-5.3-5.9
			c-4.3,0.7-7.2,4.4-9.6,7.7c-7.5,11.2-12.8,23.6-19.9,35c-1.8,2.8-3.8,5.7-6.9,7c-3.4,1.2-8-0.2-9-3.9c-0.9-3.8,0-7.6,0.6-11.4
			c2.4-12.9,3.6-26,3.6-39.1c-0.3-3.6,1.1-7.1,3.8-9.6c2.3-2.3,6.8-1,7.8,2.1c0.7,2.5,1,5,0.9,7.5c-0.5,12.3-4.1,24.1-5.2,36.3
			c7-9.3,10.8-20.4,17.4-30c4.1-6.3,9.5-13.4,17.7-14.1c4.8-0.7,9.5,1.7,11.7,6c4.6,8.7,4.5,18.7,6,28.2c0.8,4.2,0.8,8.8,3.4,12.3
			c2.5,3,6.3,0.5,9.3-0.3c0.7,0.4,1.3,0.8,2,1.2c0.1-5.7,1.4-11.3,3.8-16.5C1868.6,390.5,1880.6,379.2,1894.3,371.9z M1902.4,378.1
			c-8.8,3.3-15.9,9.9-21.7,17.1c-4.2,5.4-8.2,11.1-10.2,17.7c-0.8,2.9-1.5,6.7,1.2,8.9c2.2,2,5.3,1.1,7.8,0.4
			c14.6-5.1,25.7-17.6,31.4-31.8c1.3-3.6,2.3-8.1-0.1-11.5C1908.7,376.2,1905,377.2,1902.4,378.1z"/>
		<path class="st1" d="M1372.4,373.4c0.1-3.2,3.6-5.3,6.7-4.8c3.3,0,5.7,3.7,5.3,6.9c-0.8,7.6-4.6,14.4-6.4,21.8
			c-2.1,8.1-4,16.9-1.7,25.2c1.6,4.6,7.3,2.7,10.3,0.6c13.6-9.5,21.3-25,26.7-40.3c1.6-3.8,2.9-9.3,7.8-9.7c4-0.4,5.6,4.2,4.5,7.4
			c-3.3,11.4-5.6,23.3-4.6,35.2c0.4,4,0.8,8.3,3.1,11.8c1.5,2.1,3.3,4.1,4.8,6.2c-2.1,3.4-6.4,5.9-10.4,4.3
			c-2.9-1.5-4.4-4.7-5.5-7.6c-2.3-7.1-2.3-14.6-2.2-22c-5.5,8.6-11.4,17.2-19.7,23.4c-4,3-9,5.5-14.2,5c-4.4-0.9-7.9-4.5-9.8-8.4
			c-2.5-5.6-2.5-11.9-1.8-17.9C1366.7,397.9,1371.2,386,1372.4,373.4z"/>
		<path class="st1" d="M451.3,469.7c42.1-9.3,86-8.8,128.2-0.5c21.4,4.2,42.4,10.1,62.9,17.6c46.2,16.6,93.9,29.5,142.7,35.2
			c24.2,2.8,48.7,3.7,72.9,1.7c15.9-1.5,31.9-3.8,46.9-9.3c-8.2,14.3-20.7,25.8-34.5,34.6c-26.3,16.8-57.6,24-88.5,25.8
			c-46.7,2.5-93.3-6.1-138.1-18.9c-21.2-6-42-13.6-63-20.3c-23.9-7.7-48-15.2-72.3-21.5c-20.9-5.4-42-9.9-63.5-11.9
			s-43.1-2.1-64.2,2.4c-12.6,2.7-25,6.5-37,11.3C376.6,494.5,413,478.1,451.3,469.7z"/>
		<path class="st1" d="M33,516.5c43.2-23.2,91.9-36.2,141-36.3c43.4-0.3,86.4,8.6,127.1,23.2c21.6,7.9,43.6,14.9,65.8,20.7
			c46.6,12.2,94.8,19.8,143,17.5c18.8-1.1,37.7-3.5,55.6-9.8c-7.7,13.2-19,24-31.6,32.6c-28.7,19.3-63.6,26.7-97.7,28h-20.6
			c-44.7-1.7-88.7-11.8-131.1-25.3c-41.1-13.6-82.1-27.5-124.2-37.9c-23.4-5.7-47.3-10-71.4-10.7C60.2,517,31.5,522.1,5,533.4v-0.3
			C14,527,23.5,521.7,33,516.5z"/>
		<path class="st2" d="M131.1,141c32.5-2.6,65.1,0.5,96.5,9.1c65.2,17.7,123.1,60.5,159.6,117.4c33,51.1,48.2,111.6,43.4,172.2
			c-45.7,3.4-92.2-4-134.1-22.6C188.2,369.6,121.9,258.8,131.1,141z"/>
		<path class="st2" d="M635.6,166c40.4-19,84.7-27.9,129.3-26c3.4,0.3,7-0.1,10.4,0.9C787.7,293.7,673.8,427.6,521,439.9
			c-14.7,1.2-29.5,1.2-44.3,0c-3.4-43.6,3.4-87.5,20-128C522.6,248.2,573.3,195.2,635.6,166z"/>
	</g>
</g>
</svg>
