<?xml version="1.0" encoding="UTF-8" standalone="no"?>
<svg
   version="1.1"
   id="Layer_1"
   x="0px"
   y="0px"
   width="1384.2142"
   viewBox="0 0 1384.2142 275.46649"
   enable-background="new 0 0 1246 373"
   xml:space="preserve"
   sodipodi:docname="logo.svg"
   inkscape:version="1.2.2 (732a01da63, 2022-12-09)"
   height="275.46649"
   xmlns:inkscape="http://www.inkscape.org/namespaces/inkscape"
   xmlns:sodipodi="http://sodipodi.sourceforge.net/DTD/sodipodi-0.dtd"
   xmlns="http://www.w3.org/2000/svg"
   xmlns:svg="http://www.w3.org/2000/svg"><defs
   id="defs35" /><sodipodi:namedview
   id="namedview33"
   pagecolor="#ffffff"
   bordercolor="#000000"
   borderopacity="0.25"
   inkscape:showpageshadow="2"
   inkscape:pageopacity="0.0"
   inkscape:pagecheckerboard="0"
   inkscape:deskcolor="#d1d1d1"
   showgrid="false"
   inkscape:zoom="1.2110754"
   inkscape:cx="793.92247"
   inkscape:cy="114.77402"
   inkscape:window-width="3440"
   inkscape:window-height="1334"
   inkscape:window-x="-11"
   inkscape:window-y="-11"
   inkscape:window-maximized="1"
   inkscape:current-layer="Layer_1" />

<path
   fill="#2050bf"
   opacity="1"
   stroke="none"
   d="m 143.22766,146.21788 c 1.60666,-21.20977 3.14965,-41.95877 4.72148,-63.095646 1.49515,-0.093 2.9307,-0.25982 4.36631,-0.2604 35.65704,-0.0144 71.31425,0.0375 106.97081,-0.0916 3.33041,-0.0121 4.99051,0.88983 6.26898,4.06168 33.19577,82.355426 -21.48328,175.693696 -109.69005,186.972296 -7.19476,0.91995 -14.48535,1.09039 -22.47401,1.66229 3.30506,-43.5546 6.53894,-86.17122 9.83648,-129.2486 z"
   id="path4" />
<path
   fill="#2050bf"
   opacity="1"
   stroke="none"
   d="m 1.3461903,118.37567 c 2.894531,-11.02276 5.574761,-21.647666 8.6800617,-32.146856 0.427574,-1.44565 2.959411,-3.22939 4.524894,-3.23697 35.164671,-0.17046 70.330441,-0.11461 105.496024,-0.0905 0.3133,2.1e-4 0.62654,0.14952 1.81964,0.45304 C 117.1507,145.99453 112.4234,208.78318 107.69037,271.64793 39.686587,257.15969 -8.8129167,191.01717 1.3461903,118.37567 Z"
   id="path6" />
<path
   fill="#2050bf"
   opacity="1"
   stroke="none"
   d="M 58.723187,24.751427 C 128.38611,-22.904558 213.11621,3.8673557 248.7948,57.488877 c -74.22497,0 -148.21016,0 -222.977838,0 9.011085,-13.057839 20.064525,-23.524369 32.906225,-32.73745 z"
   id="path8" />










<g
   id="g134"
   transform="matrix(1.35,0,0,1.35,-26.042762,-452.72472)"><g
     id="g199"
     transform="translate(-51.380282,274.41741)"><path
       fill="#363636"
       opacity="1"
       stroke="none"
       d="m 1080.7879,206.8167 c 2e-4,-2.78511 2e-4,-5.09882 2e-4,-8.5885 -10.5289,13.95077 -24.1485,18.30203 -39.9759,16.34968 -12.7692,-1.57511 -23.3774,-7.34049 -31.2803,-17.70175 -15.43557,-20.23709 -11.44537,-52.57632 8.1671,-66.85112 17.6436,-12.84161 48.8965,-14.22987 62.8428,8.51616 0,-5.65541 0,-10.24968 0,-15.10365 5.4254,0 10.1694,0 15.0965,0 0.1214,0.7998 0.3014,1.43176 0.3008,2.06357 -0.028,29.49524 0.2993,58.99704 -0.2219,88.48379 -0.495,27.99491 -15.5718,43.64099 -43.4436,46.2016 -17.8258,1.63764 -34.0775,-2.14837 -47.7051,-14.49228 -0.8506,-0.77054 -1.9507,-1.26565 -3.0912,-1.98804 4.0896,-4.63043 7.4821,-8.47152 11.0945,-12.56164 2.4577,2.11917 4.6102,4.13049 6.9201,5.94128 12.525,9.81888 26.578,11.88504 41.4744,7.18253 13.4135,-4.23438 18.233,-15.05039 19.5387,-27.98998 0.3003,-2.97595 0.1991,-5.9924 0.2829,-9.46165 m -41.1887,-70.97165 c -7.2865,2.2057 -12.9528,6.60291 -17.3385,12.75996 -8.4358,11.84267 -7.4534,30.27797 2.2207,41.32274 9.9834,11.39795 26.9436,14.53661 40.0035,7.40316 13.9863,-7.63947 20.0843,-25.82734 14.1514,-42.20853 -5.3904,-14.88321 -21.565,-23.11607 -39.0371,-19.27733 z"
       id="path10" /><path
       fill="#373737"
       opacity="1"
       stroke="none"
       d="m 427.78791,134.36675 c 12.60699,-14.48291 32.80548,-18.29729 49.00451,-8.44672 8.83051,5.36981 13.3703,14.37279 13.68299,24.31909 0.65838,20.94681 0.20013,41.92873 0.20013,63.26267 -4.59137,0 -9.31836,0 -14.80347,0 0,-1.47789 6e-5,-3.0596 -6e-5,-4.64133 -10e-4,-15.49322 -3e-4,-30.98645 -0.006,-46.47967 -6e-4,-1.49887 -0.0138,-2.99884 -0.0703,-4.49645 -0.51312,-13.5825 -5.84283,-20.98198 -16.41479,-22.80992 -12.79303,-2.21193 -24.48883,3.54668 -28.59863,15.43059 -2.33912,6.76367 -3.29944,14.22973 -3.58258,21.43056 -0.54206,13.78421 -0.1576,27.60485 -0.1576,41.67157 -5.13083,0 -9.88055,0 -14.92413,0 0,-48.68961 0,-97.25287 0,-146.135256 4.8034,0 9.55179,0 14.92816,0 0,1.83945 1.2e-4,3.61382 6e-5,5.38819 -9.1e-4,18.82509 -0.0101,37.650196 0.0118,56.475276 0.002,1.64914 0.20856,3.29805 0.73011,5.0314 z"
       id="path12" /><path
       fill="#363636"
       opacity="1"
       stroke="none"
       d="m 674.38556,178.68984 c -6e-5,-37.28946 -6e-5,-74.07889 -6e-5,-111.197846 5.07739,0 9.81055,0 14.95612,0 0,22.32987 0,44.557056 0,67.747476 1.22497,-1.06465 1.80004,-1.46563 2.25488,-1.97419 12.23108,-13.67493 32.54248,-16.90787 48.08575,-7.09561 7.55951,4.7722 11.17792,12.59495 12.82648,21.17363 0.74896,3.89743 0.9837,7.94201 1.00629,11.92237 0.10199,17.96337 0.0446,35.92763 0.0446,54.24343 -5.00415,0 -9.72985,0 -14.91198,0 -0.0692,-1.48807 -0.20588,-3.08388 -0.20765,-4.67986 -0.0171,-15.32312 -0.002,-30.64628 -0.0231,-45.96939 -0.003,-2.16191 -0.0459,-4.33389 -0.2522,-6.48376 -1.28289,-13.3666 -6.38116,-19.78934 -16.89355,-21.38362 -12.36951,-1.87595 -23.66644,3.86071 -28.05322,15.00132 -1.91223,4.85637 -3.23554,10.23683 -3.41376,15.42775 -0.49109,14.30774 -0.23694,28.64104 -0.27624,42.96424 -0.004,1.63049 -5.5e-4,3.26101 -5.5e-4,5.18309 -5.1222,0 -9.85114,0 -15.14173,0 0,-11.51577 0,-22.94739 -6e-5,-34.87903 z"
       id="path14" /><path
       fill="#363636"
       opacity="1"
       stroke="none"
       d="m 834.52496,215.65508 c -20.73272,2.18233 -38.47717,-2.65167 -49.83904,-20.78784 -10.65729,-17.01174 -11.10419,-35.2714 -0.58899,-52.41703 11.00872,-17.95037 28.61285,-23.57339 48.75256,-21.23104 22.90118,2.66349 39.3725,20.3007 40.83917,42.71717 1.65998,25.37094 -11.44281,44.42223 -34.87543,50.70112 -1.28277,0.34371 -2.57544,0.65061 -4.28827,1.01762 m 5.62909,-16.75615 c 12.47059,-6.50638 17.32459,-17.49928 17.40332,-30.82366 0.0749,-12.67684 -4.90789,-23.02018 -16.37139,-29.34028 -13.49695,-7.44113 -30.08246,-4.59946 -39.58228,6.48543 -10.01855,11.69014 -10.86676,31.51199 -2.32391,43.70329 8.21368,11.72143 25.22754,16.60527 40.87426,9.97522 z"
       id="path16" /><path
       fill="#353535"
       opacity="1"
       stroke="none"
       d="m 645.62134,195.68904 c -6e-5,6.14612 -6e-5,11.79255 -6e-5,17.80603 -4.93091,0 -9.65759,0 -15.10492,0 0,-1.39451 0,-2.98048 6e-5,-4.56645 3e-4,-15.48806 0.007,-30.97613 -0.006,-46.4642 -0.002,-1.99689 -0.006,-4.00195 -0.17401,-5.9892 -1.08814,-12.84068 -6.276,-19.59102 -16.36151,-21.37774 -12.31061,-2.18091 -23.96271,3.2812 -28.29566,14.38668 -2.30487,5.90744 -3.64251,12.50351 -3.87616,18.84548 -0.55035,14.94185 -0.17645,29.91775 -0.17645,45.20468 -5.04809,0 -9.77582,0 -15.2254,0 0,-29.84865 0,-59.74074 0,-90.00388 3.98981,0 8.52252,0 13.4093,0 0.255,4.32921 0.50482,8.57006 0.82123,13.93996 5.85418,-8.88188 13.23852,-13.91876 22.72076,-15.92122 22.87854,-4.83143 40.74518,8.31381 41.95429,31.68361 0.72192,13.9536 0.25018,27.96897 0.315,42.45625 z"
       id="path18" /><path
       fill="#353535"
       opacity="1"
       stroke="none"
       d="m 915.81493,151.09246 c -1.1377,6.57385 -2.80706,12.75476 -3.02849,18.98712 -0.45526,12.81711 -0.13617,25.66173 -0.13586,38.49502 6e-5,1.62369 0,3.24739 0,5.05927 -5.18116,0 -9.91651,0 -15.28016,0 0,-30.13504 0,-60.04517 0,-90.21338 4.17243,0 8.60651,0 13.54078,0 0.25177,4.46689 0.49963,8.8638 0.781,13.85533 10.67963,-15.10565 24.91283,-19.27934 41.79213,-15.08473 14.6114,3.63098 21.7893,14.57771 22.5328,28.40317 1.1237,20.89189 0.2934,41.88885 0.2934,63.03964 -4.8333,0 -9.5662,0 -14.7353,0 0,-15.18205 0.038,-30.13883 -0.022,-45.0952 -0.02,-4.99191 0.066,-10.02628 -0.5325,-14.96422 -0.9448,-7.79939 -3.9032,-14.80856 -12.065,-17.41397 -9.2087,-2.93961 -18.3067,-2.12726 -25.7887,4.57575 -2.9911,2.67967 -4.8528,6.62005 -7.3524,10.3562 z"
       id="path20" /><path
       fill="#373737"
       opacity="1"
       stroke="none"
       d="m 351.45111,113.64937 c -3e-5,-5.63899 -3e-5,-10.7832 -3e-5,-16.209776 5.10114,0 9.8504,0 15.12241,0 0,8.552446 0,16.947926 0,25.776246 9.1019,0 17.69076,0 26.54736,0 0,4.33522 0,8.22804 0,12.57126 -8.77292,0 -17.35351,0 -26.53171,0 0,5.86383 -0.003,11.29628 5.2e-4,16.72873 0.006,10.98842 0.21158,21.98106 -0.0247,32.96421 -0.30874,14.35471 6.80494,18.90242 21.56638,15.62516 1.59872,-0.35494 3.13962,-0.97029 5.78949,-1.80626 0,4.17158 0.18579,7.90204 -0.11652,11.59253 -0.0873,1.0663 -1.39453,2.59775 -2.45257,2.93074 -9.07004,2.85469 -18.38086,3.70532 -27.40964,0.40187 -10.1192,-3.70241 -11.91336,-12.91409 -12.18384,-22.06474 -0.48678,-16.46924 -0.24511,-32.96001 -0.30554,-49.44179 -0.007,-1.99225 -9.8e-4,-3.98456 -9.8e-4,-6.57057 -6.53775,0 -12.91848,0 -19.56707,0 0,-4.51111 0,-8.43743 0,-12.99544 6.35464,0 12.7463,0 19.5664,0 0,-3.41744 0,-6.21242 0,-9.50217 z"
       id="path22" /><path
       fill="#383838"
       opacity="1"
       stroke="none"
       d="m 521.18091,195.6883 c 1.2e-4,-24.29668 1.2e-4,-48.09378 1.2e-4,-72.21483 5.15363,0 9.88593,0 14.93701,0 0,30.01257 0,59.90063 0,90.09378 -4.85113,0 -9.60247,0 -14.93725,0 0,-5.80644 0,-11.5929 1.2e-4,-17.87895 z"
       id="path24" /><path
       fill="#373737"
       opacity="1"
       stroke="none"
       d="m 530.32282,76.653174 c 5.54352,1.15403 8.60949,4.37298 9.31103,9.50092 0.60724,4.43825 -0.81183,8.18782 -4.86218,10.667 -4.31458,2.64098 -8.51495,2.40216 -12.62311,-0.36663 -3.74506,-2.5241 -5.39648,-7.50347 -4.0506,-11.92987 1.56934,-5.16148 5.43634,-7.74909 12.22486,-7.87142 z"
       id="path26" /></g></g>
</svg>
