<?xml version="1.0" encoding="UTF-8" standalone="no"?>
<svg
   version="1.1"
   id="Layer_1"
   x="0px"
   y="0px"
   width="1491.8763"
   viewBox="0 0 1491.8763 239.94245"
   enable-background="new 0 0 946 235"
   xml:space="preserve"
   sodipodi:docname="dr.svg"
   height="239.94246"
   inkscape:version="1.2.2 (732a01da63, 2022-12-09)"
   xmlns:inkscape="http://www.inkscape.org/namespaces/inkscape"
   xmlns:sodipodi="http://sodipodi.sourceforge.net/DTD/sodipodi-0.dtd"
   xmlns="http://www.w3.org/2000/svg"
   xmlns:svg="http://www.w3.org/2000/svg"><defs
   id="defs280" /><sodipodi:namedview
   id="namedview278"
   pagecolor="#ffffff"
   bordercolor="#000000"
   borderopacity="0.25"
   inkscape:showpageshadow="2"
   inkscape:pageopacity="0.0"
   inkscape:pagecheckerboard="0"
   inkscape:deskcolor="#d1d1d1"
   showgrid="false"
   inkscape:zoom="1.141387"
   inkscape:cx="1123.1949"
   inkscape:cy="232.17367"
   inkscape:window-width="3440"
   inkscape:window-height="1334"
   inkscape:window-x="-11"
   inkscape:window-y="-11"
   inkscape:window-maximized="1"
   inkscape:current-layer="Layer_1" />

<path
   fill="#141414"
   opacity="1"
   stroke="none"
   d="m 1445.6961,238.66641 c -26.3854,3.80338 -49.9851,-0.37193 -70.2363,-19.65318 4.4706,-5.16087 8.7859,-10.14237 13.2617,-15.30946 19.092,18.63327 40.6178,25.11535 65.2512,13.76862 15.385,-7.0867 20.7661,-23.57235 18.8326,-54.34699 -12.6774,17.63454 -30.0862,22.73518 -49.6205,20.14808 -15.7611,-2.08738 -29.0305,-9.53033 -38.957,-22.71902 -17.8466,-23.71178 -13.2235,-63.567195 9.7237,-80.984957 22.1211,-16.790906 61.5379,-18.60814 79.0772,9.58729 0,-7.030946 0,-12.917966 0,-19.085083 6.5184,0 12.2959,0 18.1396,0 0.2641,0.777278 0.6398,1.365996 0.6391,1.954235 -0.046,37.957025 0.3487,75.922835 -0.3577,113.868085 -0.5277,28.33649 -17.3985,47.18934 -45.7536,52.77238 m -51.7316,-119.01284 c -2.1434,19.76265 6.7092,36.10717 23.72,43.79506 14.9027,6.73517 34.8882,2.38528 45.4868,-9.90042 11.5768,-13.4195 13.3422,-35.46401 4.0635,-50.73696 -8.4874,-13.97075 -24.8001,-20.763046 -42.4787,-17.687649 -15.244,2.651878 -27.0949,15.582599 -30.7916,34.529969 z"
   id="path249"
   style="stroke-width:1.30996" />
<path
   fill="#131313"
   opacity="1"
   stroke="none"
   d="m 441.22459,9.4426432 c 2e-5,57.7731558 2e-5,114.9081168 2e-5,172.5203368 -6.10121,0 -12.05607,0 -18.45803,0 0,-5.94281 0,-11.97203 0,-19.62435 -10.37578,14.88227 -23.708,21.57301 -40.1595,22.74854 -16.71446,1.19432 -30.86453,-4.43617 -42.63839,-15.87074 -22.10021,-21.46334 -22.71737,-61.38093 -2.24847,-83.881375 17.37204,-19.0962 58.10522,-28.471914 84.55743,0.686031 0,-28.70029 0,-56.647271 0,-84.9201421 6.49798,0 12.30157,0 18.94694,0 0,2.6549537 0,5.1792269 0,8.3416993 M 385.95514,84.532918 c -23.7406,-1.54696 -41.05607,14.230692 -43.03048,39.208852 -1.8236,23.07036 13.78458,42.10819 36.07121,43.99727 23.73799,2.01211 40.85756,-12.94072 43.32579,-37.84219 2.33081,-23.51527 -12.54981,-42.593658 -36.36652,-45.363932 z"
   id="path251"
   style="fill:#193f97;fill-opacity:1;stroke-width:1.30996" />
<path
   fill="#151515"
   opacity="1"
   stroke="none"
   d="m 663.72531,22.401715 c 0,21.070486 0,41.486486 0,63.275611 11.57685,-14.737001 25.92646,-19.675523 42.82202,-17.979579 20.0336,2.010933 33.77002,13.079373 35.11089,33.188873 1.79131,26.8651 0.44292,53.93954 0.44292,81.24526 -5.3195,0 -11.13613,0 -17.8665,0 0,-2.12107 4e-5,-4.20555 0,-6.29 -4.8e-4,-19.20658 -4e-5,-38.41314 -0.002,-57.61971 -2.3e-4,-1.52762 0.003,-3.05614 -0.0434,-4.58274 -0.52008,-16.882636 -7.27999,-26.500784 -20.12713,-28.655246 -16.83466,-2.823146 -31.38557,4.79986 -36.38155,20.362196 -2.48448,7.73927 -3.50816,16.17734 -3.78672,24.34723 -0.58718,17.22023 -0.2469,34.47205 -0.30722,51.71082 -5.7e-4,0.16215 -0.27519,0.32331 -0.67456,0.76338 -5.52704,0 -11.31085,0 -17.44037,0 0,-60.28937 0,-120.438344 0,-180.9980134 5.7721,0 11.55257,0 18.25473,0 0,6.8274512 0,13.7024424 3e-5,21.2319184 z"
   id="path253"
   style="stroke-width:1.30996" />
<path
   fill="#151515"
   opacity="1"
   stroke="none"
   d="m 988.56679,12.006773 c 0,24.546456 0,48.449512 0,73.490871 13.95001,-17.013923 31.05631,-21.004264 50.54821,-16.487578 16.775,3.887153 26.4806,15.873504 27.4068,31.902774 1.5543,26.8974 0.4251,53.94983 0.4251,81.23748 -5.3984,0 -11.2249,0 -17.903,0 0,-3.02845 0,-6.00215 0,-8.97583 0,-18.33581 8e-4,-36.67167 -10e-4,-55.0075 -3e-4,-1.52782 0,-3.05642 -0.041,-4.58337 -0.4827,-16.797274 -7.3076,-26.469029 -20.1744,-28.606145 -16.5521,-2.749197 -31.17387,4.71216 -36.1672,19.798845 -2.55292,7.71338 -3.65245,16.1618 -3.91677,24.32629 -0.56975,17.59993 -0.17518,35.2311 -0.17518,53.09326 -6.38757,0 -12.1718,0 -18.27905,0 0,-60.38179 0,-120.539902 0,-181.0674826 5.85236,0 11.64971,0 18.27897,0 0,3.4318272 0,6.8334039 0,10.8783856 z"
   id="path255"
   style="stroke-width:1.30996" />
<path
   fill="#151515"
   opacity="1"
   stroke="none"
   d="m 1120.0031,173.86349 c -32.6683,-27.71218 -30.4352,-76.326671 4.3097,-97.924008 21.6295,-13.444901 59.3216,-12.953097 79.7956,12.027554 18.0056,21.968624 17.1784,57.619684 -2.2811,78.770734 -18.8575,20.49701 -57.4033,25.45291 -81.8242,7.12572 m 54.9209,-9.91568 c 16.861,-9.01211 22.553,-23.84282 21.7629,-41.97849 -1.2425,-28.515951 -32.133,-46.574084 -57.5974,-33.711179 -18.8848,9.539402 -27.4363,35.552949 -18.4229,56.043009 8.845,20.10787 30.7302,28.35998 54.2574,19.64666 z"
   id="path257"
   style="stroke-width:1.30996" />
<path
   fill="#161616"
   opacity="1"
   stroke="none"
   d="m 933.63606,103.55929 c 0.0367,26.45801 0.0367,52.34218 0.0367,78.55975 -5.62274,0 -11.43228,0 -17.8634,0 -0.11173,-1.83589 -0.32135,-3.69961 -0.32384,-5.56358 -0.0255,-18.97448 -0.0146,-37.94904 -0.0211,-56.92355 -7.1e-4,-2.1806 0.002,-4.36279 -0.0744,-6.54148 -0.5764,-16.386265 -7.38379,-25.950881 -19.96265,-28.084446 -16.5627,-2.809297 -31.30554,4.561856 -36.23751,19.587806 -2.66537,8.12044 -3.73279,17.01313 -4.03404,25.60953 -0.6015,17.16608 -0.17832,34.36811 -0.17832,51.90161 -6.2067,0 -11.99102,0 -18.69912,0 0,-37.0842 0,-74.25959 0,-111.894102 4.89831,0 10.45236,0 16.92521,0 0,5.538533 0,11.230117 0,18.73956 13.80885,-20.057513 31.48557,-24.947144 52.40983,-19.828627 17.5554,4.294436 25.32344,17.063483 28.0226,34.437529 z"
   id="path259"
   style="stroke-width:1.30996" />
<path
   fill="#161616"
   opacity="1"
   stroke="none"
   d="m 1245.8382,86.265238 c -0.039,-5.620941 -0.039,-10.622444 -0.039,-16.067162 5.2551,0 10.8106,0 17.097,0 0.2512,5.441879 0.509,11.029253 0.815,17.663467 1.4905,-1.931191 2.5598,-3.260377 3.5695,-4.633326 16.6276,-22.608706 58.2114,-20.850209 69.7965,1.768127 3.6495,7.12533 6.2188,15.576936 6.4887,23.516456 0.8279,24.3653 0.3013,48.77655 0.3013,73.55417 -6.0545,0 -12.0082,0 -18.5293,0 0,-19.24006 0,-38.17435 0,-57.10865 0,-4.36424 0.039,-8.73175 -0.1076,-13.09209 -0.4567,-13.56526 -6.6628,-23.277221 -16.6476,-26.215455 -13.656,-4.01857 -29.526,0.523707 -35.6566,12.14977 -4.1242,7.821165 -6.939,17.056825 -7.549,25.853195 -1.1899,17.16031 -0.4233,34.45627 -0.4655,51.69607 0,2.1415 -6e-4,4.28307 -6e-4,6.76008 -6.2072,0 -11.9896,0 -19.0273,0 0,-31.70395 0,-63.46459 -0.039,-95.844652 z"
   id="path261"
   style="stroke-width:1.30996" />
<path
   fill="#161616"
   opacity="1"
   stroke="none"
   d="m 552.53983,85.960428 c -2.54218,-4.6e-5 -4.46235,-4.6e-5 -6.64364,-4.6e-5 0,-5.535167 0,-10.478855 0,-16.159117 8.05011,0 16.0066,0 24.37956,0 0,-10.936726 0,-21.143907 0,-31.488126 6.27833,0 12.11252,0 18.44686,0 0,10.341322 0,20.495363 0,31.201414 11.04852,0 21.62011,0 32.6842,0 0,5.629121 0,10.712806 0,16.291084 -10.60259,0 -21.22999,0 -32.50794,0 0,12.42534 -0.0106,24.376313 0.003,36.327273 0.0106,9.16376 -0.15114,18.33363 0.12561,27.48985 0.4527,14.97908 7.29273,20.38518 22.02282,17.67365 3.39433,-0.62485 6.73578,-1.53707 11.14605,-2.55908 0.2459,4.80022 0.69721,9.45962 0.57356,14.10372 -0.031,1.16628 -1.69616,2.88124 -2.96781,3.32922 -10.7651,3.79238 -21.80615,4.39565 -32.78459,1.28052 -10.14265,-2.87797 -16.07688,-12.4105 -16.42466,-27.09024 -0.47532,-20.06285 -0.30713,-40.14096 -0.40946,-60.212549 -0.0155,-3.046832 -0.002,-6.093791 -0.002,-10.187527 -5.84038,0 -11.43007,0 -17.64173,-4.6e-5 z"
   id="path263"
   style="stroke-width:1.30996" />
<path
   fill="#151515"
   opacity="1"
   stroke="none"
   d="m 510.46489,72.165995 c 9.26572,-4.678433 18.42396,-6.09823 28.42262,-3.780576 -0.44163,6.263101 -0.85077,12.065302 -1.29594,18.378772 -3.19549,-0.241394 -6.15509,-0.59713 -9.12145,-0.667301 -17.28714,-0.408916 -29.86335,9.539201 -32.3035,26.74546 -1.39898,9.86469 -1.29322,19.97038 -1.46623,29.97449 -0.22533,13.02693 -0.0551,26.06069 -0.0551,39.35626 -6.32937,0 -12.10985,0 -18.75684,0 0,-37.30705 0,-74.47555 0,-112.029672 5.03978,0 10.58945,0 16.77916,0 0.24715,5.63032 0.49242,11.217005 0.7082,16.132023 5.35182,-4.488946 10.98866,-9.21694 17.08911,-14.109456 z"
   id="path265"
   style="fill:#193f97;fill-opacity:1;stroke-width:1.30996" />
<path
   fill="#141414"
   opacity="1"
   stroke="none"
   d="m 798.98607,163.87153 c -0.001,6.31436 -0.001,11.9747 -0.001,18.5717 -3.09831,0 -6.0512,3e-5 -9.00409,3e-5 -3.01091,0 -6.02186,-3e-5 -9.37771,-3e-5 0,-37.57844 0,-74.71792 0,-112.267062 5.82786,0 11.58936,0 18.38556,0 0,30.986042 0,62.013672 -10e-4,93.695362 z"
   id="path267"
   style="stroke-width:1.30996" />
<path
   fill="#161616"
   opacity="1"
   stroke="none"
   d="m 791.3732,12.550173 c 8.15307,2.345947 12.29474,6.677627 11.98744,12.981869 -0.28951,5.937591 -2.40864,10.869236 -8.82359,12.949708 -8.03049,2.604422 -15.69361,-0.668708 -17.93211,-7.952902 -2.54511,-8.281903 1.76982,-15.62111 10.47204,-17.710217 1.2334,-0.296107 2.54097,-0.283495 4.29622,-0.268458 z"
   id="path269"
   style="stroke-width:1.30996" />


<path
   fill="#2050bf"
   opacity="1"
   stroke="none"
   d="m 124.54465,127.14482 c 1.39709,-18.4431 2.7388,-36.485546 4.10561,-54.865273 1.30011,-0.08087 2.54842,-0.225929 3.79676,-0.226433 31.00584,-0.01252 62.01182,0.03261 93.01724,-0.07965 2.89598,-0.01053 4.33954,0.773758 5.45124,3.531863 28.86563,71.612763 -18.68095,152.775733 -95.38179,162.583123 -6.25625,0.79995 -12.59584,0.94817 -19.54243,1.44546 2.87393,-37.87323 5.68598,-74.93081 8.55337,-112.38907 z"
   id="path4"
   style="stroke-width:0.869558" /><path
   fill="#2050bf"
   opacity="1"
   stroke="none"
   d="M 1.1705901,102.93443 C 3.68755,93.349514 6.0181636,84.110544 8.7184006,74.980895 c 0.3718047,-1.257074 2.5733764,-2.808139 3.9346594,-2.81473 30.577695,-0.148224 61.15635,-0.09965 91.73484,-0.07869 0.27243,1.84e-4 0.54482,0.130017 1.58227,0.393944 C 101.86925,126.95061 97.758591,181.54893 93.642951,236.21345 34.509765,223.6151 -7.6633381,166.10038 1.1705901,102.93443 Z"
   id="path6"
   style="stroke-width:0.869558" /><path
   fill="#2050bf"
   opacity="1"
   stroke="none"
   d="M 51.063179,21.522783 C 111.63908,-19.916826 185.31675,3.3628882 216.34133,49.989872 c -64.54286,0 -128.877223,0 -193.892003,0 7.83566,-11.354539 17.447259,-20.455787 28.613852,-28.467089 z"
   id="path8"
   style="stroke-width:0.869558" />
</svg>
